<svg width="271" height="270" viewBox="0 0 271 270" fill="none" xmlns="http://www.w3.org/2000/svg">
<mask id="mask0_171_266" style="mask-type:luminance" maskUnits="userSpaceOnUse" x="0" y="0" width="271" height="270">
<path d="M270.5 135C270.5 60.4416 210.058 0 135.5 0C60.9416 0 0.5 60.4416 0.5 135C0.5 209.558 60.9416 270 135.5 270C210.058 270 270.5 209.558 270.5 135Z" fill="white"/>
</mask>
<g mask="url(#mask0_171_266)">
<path d="M270.5 135C270.5 60.4416 210.059 0 135.5 0C60.9417 0 0.500122 60.4416 0.500122 135C0.500122 209.558 60.9417 270 135.5 270C210.059 270 270.5 209.558 270.5 135Z" fill="url(#paint0_linear_171_266)"/>
<g filter="url(#filter0_d_171_266)">
<path fill-rule="evenodd" clip-rule="evenodd" d="M-37.9268 44.9748L-26.2411 34.4893C-21.0913 29.8683 -24.0939 21.3277 -31.0025 20.9457C-33.759 20.7936 -36.3893 22.1152 -37.9125 24.4174L-39.5685 26.9208C-40.4554 28.2613 -40.7734 29.8998 -40.4526 31.4748L-40.2492 32.4733C-39.8327 34.5177 -40.8139 36.5922 -42.6586 37.5673L-42.9743 37.7343C-45.6783 39.1635 -46.1656 42.8323 -43.9284 44.9181C-42.2444 46.4877 -39.6404 46.5124 -37.9268 44.9748ZM-44.67 30.6405L-45.8132 28.0102C-46.642 26.1036 -49.0187 25.4479 -50.708 26.6598C-51.5676 27.2763 -52.075 28.2712 -52.069 29.3292L-52.053 32.197C-52.0416 34.2441 -50.4309 35.9244 -48.3864 36.0225C-45.5363 36.1588 -43.5325 33.2572 -44.67 30.6405ZM-61.8867 37.5561L-60.2067 35.2318C-58.9887 33.547 -59.6358 31.1683 -61.5395 30.3322C-62.5081 29.907 -63.6229 29.9776 -64.5301 30.5221L-66.9892 31.9977C-68.7444 33.0507 -69.3692 35.293 -68.4114 37.102C-67.0764 39.6238 -63.5584 39.8686 -61.8867 37.5561ZM20.3198 157.614V156.846C20.3198 150.783 23.1809 145.076 28.0391 141.449L30.0151 139.974C35.7103 135.722 42.9904 134.197 49.9132 135.805L51.6601 136.211L67.9978 139.991C68.5288 140.114 69.0782 140.135 69.6173 140.055L72.7511 139.587C75.4084 139.189 76.2647 135.782 74.1106 134.176C73.3456 133.605 72.8947 132.707 72.8947 131.753V131.544C72.8947 129.935 74.0102 128.542 75.5794 128.189L79.5911 127.287C82.0504 126.735 83.431 124.112 82.495 121.772C81.8731 120.217 80.3678 119.198 78.6934 119.198H76.9024C74.4328 119.198 72.1607 120.549 70.9813 122.719L69.9256 124.662C69.773 124.942 69.6007 125.21 69.4099 125.465C66.6145 129.192 60.9346 128.899 58.5379 124.905L58.1279 124.222C56.3783 121.305 52.8058 120.041 49.6112 121.207L40.2206 124.636C39.4084 124.932 38.6438 125.344 37.9504 125.86L32.3366 130.038C30.2018 131.627 27.1373 130.656 26.3075 128.127C25.727 126.358 26.479 124.425 28.1026 123.514L29.8238 122.548C31.5388 121.585 32.6003 119.772 32.6003 117.805C32.6003 116.104 33.3964 114.501 34.7518 113.472L42.7267 107.422C43.3859 106.923 43.9178 106.274 44.2796 105.531C45.3151 103.402 47.6429 102.226 49.9703 102.655L53.8093 103.364C57.0227 103.956 60.2497 102.397 61.7828 99.5116L62.5672 98.0356C63.1895 96.8638 63.2188 95.4666 62.6455 94.27C61.1911 91.2325 56.9246 91.0755 55.2506 93.9978L53.8453 96.4512C52.7446 98.3731 50.1175 98.7237 48.5515 97.1572L48.3616 96.9673C47.8526 96.4584 47.1623 96.1726 46.4428 96.1726C44.9443 96.1726 43.7293 94.9576 43.7293 93.4591V89.3034C43.7293 87.8643 44.1811 86.4616 45.0208 85.2934L51.8077 75.8538C55.4401 70.8016 61.7432 68.4135 67.8119 69.7905L74.1241 71.2233C75.1951 71.4663 76.0757 72.2254 76.4735 73.2487L76.5167 73.3599C77.1368 74.9547 76.3849 76.7547 74.8139 77.4337L73.9657 77.8009C73.3154 78.0817 72.8947 78.7221 72.8947 79.4304C72.8947 80.4109 73.6898 81.2061 74.6704 81.2061H76.7498C78.5966 81.2061 80.1838 79.8966 80.5348 78.0835L80.8268 76.5733C81.221 74.5371 82.6867 72.8739 84.6572 72.2263L95.0554 68.8113C97.4827 68.0139 99.284 65.9592 99.7574 63.4482C100.297 60.5853 102.55 58.3542 105.418 57.8434L106.509 57.6495C108.74 57.2521 110.725 55.9917 112.034 54.1413L122.508 39.3295C124.851 36.0171 128.934 34.407 132.907 35.2291L133.764 35.4064C136.132 35.8965 138.169 37.395 139.34 39.51C141.302 43.0515 145.535 44.6593 149.353 43.3134L152.429 42.2298C154.796 41.3959 157.411 41.6767 159.547 42.9934C162.188 44.622 165.516 44.6422 168.176 43.0456L171.98 40.7637C174.996 38.9542 178.536 38.2171 182.024 38.673L193.2 40.1337C197.091 40.6422 201.046 40.0563 204.622 38.4426C207.913 36.958 211.529 36.3415 215.126 36.6525L227.647 37.7343C229.321 37.8787 230.779 38.9304 231.446 40.4725C232.049 41.8666 231.92 43.4691 231.101 44.7484L230.161 46.2177C228.985 48.0546 228.627 50.2978 229.172 52.4097L229.664 54.3177C230.125 56.1028 230.18 57.9681 229.828 59.778L228.852 64.7788C228.52 66.4816 227.328 67.8897 225.703 68.4985C223.616 69.2815 222.301 71.3529 222.479 73.5754L223.833 90.4077C223.909 91.3513 223.247 92.1946 222.312 92.344C221.426 92.4858 220.569 91.9579 220.297 91.1025L217.415 82.0368C215.843 77.0922 210.731 74.1901 205.679 75.3759C203.366 75.9186 201.324 77.2726 199.923 79.1923L198.788 80.7498C195.888 84.7255 195.102 89.8627 196.681 94.5234L200.014 104.363C201.297 108.149 200.422 112.333 197.728 115.288L195.794 117.409C194.763 118.539 194.303 120.078 194.545 121.59L194.744 122.831C195.204 125.708 192.64 128.155 189.788 127.561C186.814 126.941 184.2 129.613 184.886 132.573L186.87 141.134C187.729 144.841 186.359 148.71 183.359 151.051L179.814 153.817C177.809 155.38 176.638 157.781 176.638 160.323V164.873C176.638 166.918 174.98 168.575 172.936 168.575H170.33C169.246 168.575 168.45 169.594 168.713 170.646C169.156 172.417 166.839 173.51 165.755 172.041L156.376 159.344C155.056 157.557 152.681 156.91 150.638 157.782L147.512 159.116C145.583 159.939 143.998 161.403 143.025 163.26L138.434 172.026C137.998 172.859 136.842 172.953 136.278 172.201L125.934 158.436C122.654 154.071 117.974 150.967 112.678 149.643L106.791 147.717C104.627 147.01 102.914 149.613 104.421 151.32C104.635 151.564 104.901 151.758 105.198 151.888L105.392 151.973C107.534 152.914 107.974 155.761 106.214 157.303L103.451 159.727C101.759 161.21 99.338 161.522 97.3261 160.515L94.9429 159.324C91.035 157.37 86.7245 161.139 88.1389 165.272C88.8143 167.248 90.6715 168.575 92.759 168.575H92.8927C96.5512 168.575 99.0059 172.332 97.5362 175.682L91.5796 189.263C91.2335 190.053 90.9572 190.871 90.7538 191.708L88.0241 202.949C87.1583 206.513 85.5361 209.85 83.2672 212.733L72.3952 226.548C70.6915 228.712 68.0887 229.977 65.3333 229.977C62.8903 229.977 60.5525 228.982 58.8587 227.222L56.4521 224.721C53.3777 221.527 51.6601 217.266 51.6601 212.833V199.787L50.306 188.787C49.8601 185.164 48.0862 181.835 45.3277 179.444C43.1182 177.529 40.3889 176.314 37.4873 175.953L36.4019 175.818C27.2161 174.677 20.3198 166.87 20.3198 157.614ZM-51.259 51.1317L-53.2183 53.8461C-55.1695 56.5488 -59.2806 56.263 -60.8386 53.316C-61.9545 51.205 -61.226 48.5901 -59.1794 47.3607L-56.31 45.6363C-55.25 44.9995 -53.9468 44.9167 -52.8146 45.4144C-50.5945 46.3905 -49.8395 49.1652 -51.259 51.1317ZM-46.0732 55.458L-48.0496 56.8489C-48.8939 57.4429 -49.3963 58.4109 -49.3963 59.4436C-49.3963 60.5637 -48.8055 61.6009 -47.8421 62.1724L-42.9641 65.065C-40.1318 66.7444 -38.3952 69.7932 -38.3952 73.0863V73.6272C-38.3952 75.0672 -37.98 76.477 -37.1992 77.6871L-36.0761 79.4281C-34.5154 81.8469 -31.3191 82.5952 -28.8471 81.1197C-26.7802 79.8862 -25.793 77.4234 -26.4358 75.1041L-29.7227 63.2425C-30.6768 59.7991 -33.1393 56.9731 -36.4198 55.5565L-38.4647 54.6732C-40.9647 53.5936 -43.8462 53.8911 -46.0732 55.458ZM-1.3121 26.6071L-20.6324 37.939C-22.2853 38.9083 -23.3008 40.6813 -23.3008 42.5974C-23.3008 43.9789 -22.7715 45.3078 -21.8218 46.3108L-18.4488 49.8735C-14.3684 54.1831 -12.7167 60.2491 -14.049 66.0325L-16.8813 78.3274C-17.2996 80.1436 -16.8557 82.0512 -15.6785 83.4961C-13.5924 86.0562 -9.83617 86.4648 -7.24821 84.4132L5.61453 74.2162C10.2074 70.5757 13.2116 65.2977 13.9978 59.49L14.5972 55.0597C14.9144 52.717 15.5548 50.4292 16.4998 48.2625L18.9014 42.7563C19.8293 40.6287 20.1601 38.2878 19.8577 35.986C19.1408 30.5262 15.0058 26.14 9.59721 25.1037L8.56528 24.9057C5.17546 24.2563 1.66505 24.8607 -1.3121 26.6071ZM-146.549 78.0714C-148.318 68.5822 -146.756 48.9676 -127.769 40.6039C-127.375 40.4302 -126.98 40.2471 -126.585 40.0635L-126.585 40.063C-124.921 39.2904 -123.234 38.5065 -121.428 38.3755C-117.687 38.1055 -111.866 40.1346 -105.196 48.6117C-104.954 48.9195 -104.724 49.2174 -104.502 49.5054C-102.906 51.5709 -101.707 53.1247 -99.1421 54.2812C-94.2664 56.4799 -91.007 52.096 -87.7328 47.6914C-84.4676 43.2994 -81.1876 38.8867 -76.2736 40.9617C-74.8992 41.5417 -73.2022 42.6937 -71.1228 44.568C-68.9453 46.5309 -67.3767 49.0837 -66.2699 51.7986L-63.9245 57.55C-63.0587 59.6736 -61.3834 61.3647 -59.2685 62.2503C-53.6632 64.5979 -52.177 71.8501 -56.4071 76.2133L-61.7557 81.7299C-65.1479 85.2286 -64.9893 90.8356 -61.4048 94.1373L-59.3562 96.0241C-56.2939 98.8447 -51.4023 98.0739 -49.3556 94.4482C-47.042 90.3501 -41.2627 90.0225 -38.5009 93.8335L-34.0429 99.9846C-30.5767 104.768 -31.3649 111.411 -35.8542 115.249L-62.0556 137.655C-63.3576 138.768 -64.1071 140.395 -64.1071 142.109C-64.1071 146.263 -68.3093 149.098 -72.161 147.543L-74.8619 146.452C-79.568 144.552 -84.7021 148.016 -84.7021 153.091C-84.7021 155.561 -83.429 157.857 -81.3338 159.165L-69.1788 166.753C-64.971 169.38 -59.8503 170.11 -55.0761 168.763C-50.3167 167.421 -45.2122 168.142 -41.0109 170.75L-16.6743 185.858C-10.6602 189.592 -8.82166 197.5 -12.5721 203.503L-35.6246 240.406C-36.8688 242.398 -37.8329 244.552 -38.4896 246.807L-40.2864 252.975C-40.9718 255.329 -40.9475 257.832 -40.2163 260.172L-38.0535 267.093C-37.7238 268.147 -38.1149 269.295 -39.0205 269.928C-40.2575 270.795 -41.9724 270.395 -42.6999 269.072L-51.1104 253.772C-52.5874 251.085 -53.3619 248.068 -53.3619 245.002V218.299C-53.3619 212.772 -55.6477 207.492 -59.6773 203.71L-62.1077 201.429C-65.7286 198.03 -67.2991 192.98 -66.2442 188.127C-64.965 182.243 -67.556 176.196 -72.6979 173.063L-89.6264 162.748C-90.9314 161.953 -92.038 160.87 -92.8624 159.583L-104.964 140.68C-105.708 139.519 -107.493 139.891 -107.711 141.252C-107.955 142.781 -110.072 142.984 -110.603 141.53L-115.566 127.924C-115.878 127.068 -115.963 126.145 -115.811 125.246L-113.161 109.505C-112.289 104.324 -113.033 99.0009 -115.291 94.2574L-122.041 80.0838C-123.612 76.7839 -126.941 74.682 -130.596 74.682H-130.913C-132.721 74.682 -134.482 75.258 -135.94 76.3258L-141.171 80.1585C-142.964 81.472 -145.514 80.7552 -146.361 78.7C-146.445 78.4948 -146.509 78.2892 -146.549 78.0714ZM180.722 179.521L179.855 180.542C178.12 182.586 178.279 185.627 180.217 187.479L181.057 188.282C181.958 189.143 183.262 189.435 184.444 189.041C185.817 188.583 186.743 187.299 186.743 185.851V181.732C186.743 180.482 186.06 179.332 184.963 178.733C183.541 177.957 181.77 178.286 180.722 179.521ZM179.836 221.759V224.635C179.836 230.129 184.289 234.581 189.782 234.581C190.904 234.581 192.017 234.392 193.075 234.021L194.686 233.455C197.316 232.533 200.192 232.605 202.773 233.658C204.265 234.267 205.61 235.185 206.722 236.352L211.294 241.153C212.225 242.131 213.376 242.872 214.651 243.316C218.442 244.638 222.64 243.125 224.717 239.69L226.493 236.753C227.359 235.319 227.935 233.729 228.186 232.073L229.266 224.941C229.563 222.981 229.199 220.978 228.232 219.248L220.849 206.041C219.847 204.248 217.188 204.514 216.56 206.47C216.248 207.442 215.344 208.102 214.323 208.102H213.692C212.4 208.102 211.233 207.328 210.731 206.137L210.293 205.1C209.136 202.358 205.826 201.267 203.265 202.784L195.822 207.195C194.806 207.796 193.71 208.251 192.567 208.545L189.471 209.339C183.8 210.794 179.836 215.905 179.836 221.759ZM163.205 183.763L167.185 190.03C167.655 190.769 168.47 191.217 169.345 191.217C170.759 191.217 171.905 190.071 171.905 188.658V188.429C171.905 187.752 171.658 187.099 171.212 186.59L166.541 181.264C165.929 180.567 164.93 180.356 164.089 180.747C162.944 181.279 162.528 182.697 163.205 183.763ZM91.8883 211.379L95.9423 205.16C96.6317 204.102 98.0951 203.893 99.0536 204.715C99.7579 205.319 99.9797 206.315 99.5986 207.16L96.6871 213.619C96.409 214.236 95.9162 214.731 95.3006 215.011L95.0923 215.105C93.8062 215.691 92.2883 215.123 91.7029 213.837C91.3397 213.04 91.4099 212.112 91.8883 211.379ZM215.313 194.346L215.831 194.822C216.622 195.547 217.656 195.95 218.729 195.95H221.188C222.26 195.95 223.319 196.187 224.289 196.646L228.192 198.491C229.15 198.944 230.294 198.637 230.898 197.766C231.588 196.769 231.325 195.399 230.314 194.729L220.243 188.048C219.586 187.612 218.814 187.379 218.025 187.379C214.368 187.379 212.618 191.873 215.313 194.346ZM244.815 257.414L238.919 262.403C238.244 262.973 238.024 263.918 238.376 264.727C238.771 265.635 239.77 266.117 240.726 265.862L242.551 265.375C243.96 265 245.073 263.919 245.49 262.522L246.656 258.619C246.983 257.525 245.687 256.676 244.815 257.414ZM249.705 250.91L251.95 243.519C252.282 242.426 253.832 242.435 254.151 243.531L255.29 247.443C255.697 248.843 255.349 250.354 254.369 251.434L253.1 252.834C252.435 253.567 251.335 253.704 250.511 253.156C249.776 252.667 249.448 251.754 249.705 250.91Z" fill="#A7CF75"/>
</g>
<g filter="url(#filter1_d_171_266)">
<path fill-rule="evenodd" clip-rule="evenodd" d="M367.073 44.9748L378.759 34.4893C383.909 29.8683 380.906 21.3277 373.997 20.9457C371.241 20.7936 368.611 22.1152 367.088 24.4174L365.432 26.9208C364.545 28.2613 364.227 29.8998 364.547 31.4748L364.751 32.4733C365.167 34.5177 364.186 36.5922 362.341 37.5673L362.026 37.7343C359.322 39.1635 358.835 42.8323 361.072 44.9181C362.755 46.4877 365.36 46.5124 367.073 44.9748ZM360.33 30.6405L359.187 28.0102C358.358 26.1036 355.981 25.4479 354.292 26.6598C353.432 27.2763 352.925 28.2712 352.931 29.3292L352.947 32.197C352.959 34.2441 354.569 35.9244 356.613 36.0225C359.464 36.1588 361.468 33.2572 360.33 30.6405ZM343.113 37.5561L344.793 35.2318C346.011 33.547 345.364 31.1683 343.46 30.3322C342.492 29.907 341.377 29.9776 340.47 30.5221L338.011 31.9977C336.255 33.0507 335.631 35.293 336.588 37.102C337.924 39.6238 341.442 39.8686 343.113 37.5561ZM425.318 157.614V156.846C425.318 150.783 428.18 145.076 433.04 141.449L435.016 139.974C440.713 135.722 447.989 134.197 454.915 135.805L456.661 136.211L472.996 139.991C473.527 140.114 474.08 140.135 474.616 140.055L477.752 139.587C480.407 139.189 481.267 135.782 479.111 134.176C478.346 133.605 477.896 132.707 477.896 131.753V131.544C477.896 129.935 479.012 128.542 480.578 128.189L484.592 127.287C487.049 126.735 488.431 124.112 487.495 121.772C486.874 120.217 485.366 119.198 483.692 119.198H481.901C479.431 119.198 477.163 120.549 475.979 122.719L474.926 124.662C474.773 124.942 474.602 125.21 474.409 125.465C471.614 129.192 465.935 128.899 463.537 124.905L463.127 124.222C461.377 121.305 457.804 120.041 454.613 121.207L445.222 124.636C444.407 124.932 443.642 125.344 442.949 125.86L437.338 130.038C435.2 131.627 432.136 130.656 431.308 128.127C430.727 126.358 431.479 124.425 433.103 123.514L434.822 122.548C436.537 121.585 437.599 119.772 437.599 117.805C437.599 116.104 438.395 114.501 439.75 113.472L447.728 107.422C448.385 106.923 448.916 106.274 449.281 105.531C450.316 103.402 452.642 102.226 454.969 102.655L458.807 103.364C462.025 103.956 465.251 102.397 466.781 99.5116L467.569 98.0356C468.19 96.8638 468.217 95.4666 467.645 94.27C466.192 91.2325 461.926 91.0755 460.252 93.9978L458.848 96.4512C457.745 98.3731 455.117 98.7237 453.551 97.1572L453.362 96.9673C452.854 96.4584 452.161 96.1726 451.441 96.1726C449.942 96.1726 448.727 94.9576 448.727 93.4591V89.3034C448.727 87.8643 449.182 86.4616 450.023 85.2934L456.809 75.8538C460.441 70.8016 466.745 68.4135 472.811 69.7905L479.125 71.2233C480.196 71.4663 481.078 72.2254 481.474 73.2487L481.519 73.3599C482.135 74.9547 481.384 76.7547 479.813 77.4337L478.967 77.8009C478.315 78.0817 477.896 78.7221 477.896 79.4304C477.896 80.4109 478.688 81.2061 479.669 81.2061H481.748C483.598 81.2061 485.186 79.8966 485.533 78.0835L485.825 76.5733C486.221 74.5371 487.688 72.8739 489.659 72.2263L500.054 68.8113C502.484 68.0139 504.284 65.9592 504.757 63.4482C505.297 60.5853 507.551 58.3542 510.418 57.8434L511.511 57.6495C513.739 57.2521 515.723 55.9917 517.033 54.1413L527.509 39.3295C529.853 36.0171 533.935 34.407 537.908 35.2291L538.763 35.4064C541.13 35.8965 543.169 37.395 544.339 39.51C546.301 43.0515 550.535 44.6593 554.356 43.3134L557.429 42.2298C559.796 41.3959 562.411 41.6767 564.548 42.9934C567.19 44.622 570.515 44.6422 573.175 43.0456L576.982 40.7637C579.997 38.9542 583.534 38.2171 587.026 38.673L598.199 40.1337C602.092 40.6422 606.047 40.0563 609.625 38.4426C612.914 36.958 616.528 36.3415 620.128 36.6525L632.647 37.7343C634.321 37.8787 635.779 38.9304 636.445 40.4725C637.048 41.8666 636.922 43.4691 636.103 44.7484L635.162 46.2177C633.983 48.0546 633.628 50.2978 634.172 52.4097L634.663 54.3177C635.126 56.1028 635.18 57.9681 634.829 59.778L633.853 64.7788C633.52 66.4816 632.327 67.8897 630.703 68.4985C628.615 69.2815 627.301 71.3529 627.481 73.5754L628.835 90.4077C628.912 91.3513 628.246 92.1946 627.314 92.344C626.428 92.4858 625.568 91.9579 625.298 91.1025L622.414 82.0368C620.843 77.0922 615.731 74.1901 610.678 75.3759C608.365 75.9186 606.322 77.2726 604.922 79.1923L603.788 80.7498C600.886 84.7255 600.103 89.8627 601.682 94.5234L605.017 104.363C606.299 108.149 605.422 112.333 602.726 115.288L600.796 117.409C599.765 118.539 599.302 120.078 599.545 121.59L599.743 122.831C600.206 125.708 597.641 128.155 594.788 127.561C591.814 126.941 589.199 129.613 589.888 132.573L591.872 141.134C592.727 144.841 591.359 148.71 588.358 151.051L584.812 153.817C582.809 155.38 581.639 157.781 581.639 160.323V164.873C581.639 166.918 579.979 168.575 577.936 168.575H575.33C574.246 168.575 573.449 169.594 573.715 170.646C574.156 172.417 571.838 173.51 570.754 172.041L561.376 159.344C560.057 157.557 557.681 156.91 555.638 157.782L552.511 159.116C550.585 159.939 549.001 161.403 548.024 163.26L543.434 172.026C542.998 172.859 541.841 172.953 541.279 172.201L530.933 158.436C527.653 154.071 522.973 150.967 517.676 149.643L511.79 147.717C509.626 147.01 507.916 149.613 509.419 151.32C509.635 151.564 509.9 151.758 510.197 151.888L510.391 151.973C512.533 152.914 512.974 155.761 511.214 157.303L508.451 159.727C506.759 161.21 504.338 161.522 502.327 160.515L499.942 159.324C496.036 157.37 491.725 161.139 493.138 165.272C493.813 167.248 495.671 168.575 497.759 168.575H497.894C501.553 168.575 504.005 172.332 502.538 175.682L496.58 189.263C496.234 190.053 495.959 190.871 495.752 191.708L493.025 202.949C492.157 206.513 490.537 209.85 488.269 212.733L477.397 226.548C475.691 228.712 473.09 229.977 470.332 229.977C467.893 229.977 465.553 228.982 463.861 227.222L461.453 224.721C458.38 221.527 456.661 217.266 456.661 212.833V199.787L455.306 188.787C454.861 185.164 453.088 181.835 450.329 179.444C448.12 177.529 445.388 176.314 442.486 175.953L441.401 175.818C432.217 174.677 425.318 166.87 425.318 157.614ZM353.741 51.1317L351.782 53.8461C349.831 56.5488 345.719 56.263 344.161 53.316C343.045 51.205 343.774 48.5901 345.821 47.3607L348.69 45.6363C349.75 44.9995 351.053 44.9167 352.185 45.4144C354.406 46.3905 355.16 49.1652 353.741 51.1317ZM358.927 55.458L356.95 56.8489C356.106 57.4429 355.604 58.4109 355.604 59.4436C355.604 60.5637 356.194 61.6009 357.158 62.1724L362.036 65.065C364.868 66.7444 366.605 69.7932 366.605 73.0863V73.6272C366.605 75.0672 367.02 76.477 367.801 77.6871L368.924 79.4281C370.485 81.8469 373.681 82.5952 376.153 81.1197C378.22 79.8862 379.207 77.4234 378.564 75.1041L375.277 63.2425C374.323 59.7991 371.861 56.9731 368.58 55.5565L366.535 54.6732C364.035 53.5936 361.154 53.8911 358.927 55.458ZM403.688 26.6071L384.368 37.939C382.715 38.9083 381.699 40.6813 381.699 42.5974C381.699 43.9789 382.228 45.3078 383.178 46.3108L386.551 49.8735C390.632 54.1831 392.283 60.2491 390.951 66.0325L388.119 78.3274C387.7 80.1436 388.144 82.0512 389.322 83.4961C391.408 86.0562 395.164 86.4648 397.752 84.4132L410.615 74.2162C415.207 70.5757 418.213 65.2977 418.996 59.49L419.599 55.0597C419.914 52.717 420.553 50.4292 421.498 48.2625L423.901 42.7563C424.828 40.6287 425.161 38.2878 424.859 35.986C424.139 30.5262 420.004 26.14 414.599 25.1037L413.565 24.9057C410.176 24.2563 406.665 24.8607 403.688 26.6071ZM258.451 78.0714C256.682 68.5822 258.243 48.9676 277.231 40.6039C277.625 40.4302 278.02 40.2471 278.415 40.0635L278.416 40.063C280.079 39.2904 281.766 38.5065 283.572 38.3755C287.312 38.1055 293.134 40.1346 299.804 48.6117C300.046 48.9195 300.276 49.2174 300.498 49.5054C302.094 51.5709 303.293 53.1247 305.858 54.2812C310.734 56.4799 313.993 52.096 317.267 47.6914C320.532 43.2994 323.812 38.8867 328.726 40.9617C330.101 41.5417 331.798 42.6937 333.877 44.568C336.055 46.5309 337.623 49.0837 338.73 51.7986L341.075 57.55C341.941 59.6736 343.617 61.3647 345.732 62.2503C351.337 64.5979 352.823 71.8501 348.593 76.2133L343.244 81.7299C339.852 85.2286 340.011 90.8356 343.595 94.1373L345.644 96.0241C348.706 98.8447 353.598 98.0739 355.645 94.4482C357.958 90.3501 363.737 90.0225 366.499 93.8335L370.957 99.9846C374.423 104.768 373.635 111.411 369.146 115.249L342.945 137.655C341.642 138.768 340.893 140.395 340.893 142.109C340.893 146.263 336.691 149.098 332.839 147.543L330.138 146.452C325.432 144.552 320.298 148.016 320.298 153.091C320.298 155.561 321.571 157.857 323.666 159.165L335.821 166.753C340.029 169.38 345.15 170.11 349.924 168.763C354.683 167.421 359.788 168.142 363.989 170.75L388.326 185.858C394.34 189.592 396.178 197.5 392.428 203.503L369.375 240.406C368.131 242.398 367.167 244.552 366.51 246.807L364.714 252.975C364.028 255.329 364.052 257.832 364.784 260.172L366.946 267.093C367.276 268.147 366.885 269.295 365.98 269.928C364.743 270.795 363.028 270.395 362.3 269.072L353.89 253.772C352.413 251.085 351.638 248.068 351.638 245.002V218.299C351.638 212.772 349.352 207.492 345.323 203.71L342.892 201.429C339.271 198.03 337.701 192.98 338.756 188.127C340.035 182.243 337.444 176.196 332.302 173.063L315.374 162.748C314.069 161.953 312.962 160.87 312.138 159.583L300.036 140.68C299.292 139.519 297.507 139.891 297.289 141.252C297.045 142.781 294.927 142.984 294.397 141.53L289.434 127.924C289.121 127.068 289.037 126.145 289.189 125.246L291.839 109.505C292.711 104.324 291.967 99.0009 289.709 94.2574L282.959 80.0838C281.388 76.7839 278.059 74.682 274.404 74.682H274.087C272.279 74.682 270.518 75.258 269.06 76.3258L263.829 80.1585C262.036 81.472 259.486 80.7552 258.639 78.7C258.555 78.4948 258.491 78.2892 258.451 78.0714ZM585.721 179.521L584.857 180.542C583.12 182.586 583.277 185.627 585.217 187.479L586.058 188.282C586.958 189.143 588.263 189.435 589.442 189.041C590.819 188.583 591.742 187.299 591.742 185.851V181.732C591.742 180.482 591.062 179.332 589.964 178.733C588.542 177.957 586.769 178.286 585.721 179.521ZM584.834 221.759V224.635C584.834 230.129 589.289 234.581 594.784 234.581C595.904 234.581 597.016 234.392 598.073 234.021L599.684 233.455C602.317 232.533 605.192 232.605 607.771 233.658C609.265 234.267 610.61 235.185 611.722 236.352L616.294 241.153C617.225 242.131 618.377 242.872 619.651 243.316C623.44 244.638 627.638 243.125 629.717 239.69L631.495 236.753C632.359 235.319 632.935 233.729 633.187 232.073L634.267 224.941C634.564 222.981 634.199 220.978 633.232 219.248L625.847 206.041C624.848 204.248 622.189 204.514 621.559 206.47C621.248 207.442 620.344 208.102 619.322 208.102H618.692C617.401 208.102 616.235 207.328 615.731 206.137L615.295 205.1C614.138 202.358 610.826 201.267 608.266 202.784L600.823 207.195C599.806 207.796 598.712 208.251 597.565 208.545L594.469 209.339C588.799 210.794 584.834 215.905 584.834 221.759ZM568.207 183.763L572.185 190.03C572.653 190.769 573.472 191.217 574.345 191.217C575.758 191.217 576.905 190.071 576.905 188.658V188.429C576.905 187.752 576.658 187.099 576.212 186.59L571.541 181.264C570.929 180.567 569.93 180.356 569.089 180.747C567.946 181.279 567.527 182.697 568.207 183.763ZM496.886 211.379L500.941 205.16C501.634 204.102 503.096 203.893 504.055 204.715C504.757 205.319 504.982 206.315 504.599 207.16L501.688 213.619C501.409 214.236 500.918 214.731 500.302 215.011L500.095 215.105C498.808 215.691 497.287 215.123 496.702 213.837C496.342 213.04 496.409 212.112 496.886 211.379ZM620.312 194.346L620.83 194.822C621.622 195.547 622.657 195.95 623.728 195.95H626.189C627.26 195.95 628.318 196.187 629.29 196.646L633.191 198.491C634.15 198.944 635.293 198.637 635.896 197.766C636.589 196.769 636.323 195.399 635.315 194.729L625.244 188.048C624.587 187.612 623.813 187.379 623.026 187.379C619.367 187.379 617.617 191.873 620.312 194.346ZM649.814 257.414L643.919 262.403C643.244 262.973 643.024 263.918 643.375 264.727C643.771 265.635 644.77 266.117 645.724 265.862L647.551 265.375C648.959 265 650.075 263.919 650.489 262.522L651.655 258.619C651.983 257.525 650.687 256.676 649.814 257.414ZM654.706 250.91L656.951 243.519C657.28 242.426 658.832 242.435 659.152 243.531L660.29 247.443C660.695 248.843 660.349 250.354 659.368 251.434L658.099 252.834C657.437 253.567 656.335 253.704 655.511 253.156C654.778 252.667 654.449 251.754 654.706 250.91Z" fill="#A7CF75"/>
</g>
<g opacity="0.6" filter="url(#filter2_f_171_266)">
<path d="M202.783 9.08648L201.673 10.5427C198.995 14.0554 194.402 15.5116 190.189 14.1827C189.17 13.861 188.107 13.6976 187.038 13.6976H177.886C175.06 13.6976 172.405 15.0503 170.743 17.3372C167.872 21.2887 168.755 26.8201 172.714 29.6816L177.528 33.1624C180.721 35.4704 184.703 36.406 188.59 35.7607L196.706 34.4129C198.085 34.1843 199.435 33.8104 200.734 33.2983C207.898 30.4736 216.048 32.0491 221.643 37.3397L229.133 44.4232C230.482 45.6989 231.946 46.8487 233.505 47.858C247.074 56.6447 265.145 53.2954 274.665 40.2292L279.153 34.0691C281.653 30.6374 282.55 26.294 281.614 22.1527L280.036 15.1714C278.99 10.5431 274.216 7.79282 269.687 9.20978C268.014 9.73313 266.555 10.7839 265.528 12.2045L265.062 12.8498C262.375 16.5686 257.587 18.1166 253.231 16.6744L222.745 6.57966L217.672 4.72805C212.29 2.76384 206.256 4.53018 202.783 9.08648Z" fill="white"/>
<path d="M104.911 138.683L103.801 140.139C101.124 143.652 96.5301 145.108 92.3177 143.779L92.1224 143.718C91.2323 143.437 90.3044 143.294 89.3711 143.294H86.4263C81.2585 143.294 77.7728 148.575 79.8032 153.326C82.6148 160.897 90.3998 165.41 98.3661 164.087L99.0578 163.972C100.288 163.768 101.493 163.435 102.652 162.978L102.863 162.894C110.026 160.07 118.176 161.646 123.771 166.936L131.262 174.019C132.611 175.295 134.074 176.445 135.633 177.454C149.203 186.241 167.274 182.892 176.793 169.826L178.803 167.067C182.878 161.474 184.34 154.394 182.814 147.644C181.179 140.41 176.291 134.337 169.572 131.195L169.201 131.022C163.252 127.286 155.963 126.353 149.265 128.469L129.404 134.745C126.466 135.673 123.304 135.603 120.41 134.547L119.8 134.324C114.418 132.36 108.384 134.127 104.911 138.683Z" fill="white"/>
<path d="M339.001 226.197L290.132 238.119C286.455 239.015 282.602 238.888 278.993 237.749L277.294 237.214C276.404 236.933 275.476 236.79 274.543 236.79H271.598C266.431 236.79 262.945 242.071 264.976 246.822C267.787 254.393 275.572 258.906 283.538 257.583L286.08 257.161L328.464 253.566C341.999 252.418 355.38 257.098 365.249 266.43L366.396 267.515C367.746 268.791 369.209 269.941 370.768 270.951C384.337 279.737 402.408 276.388 411.928 263.322L413.938 260.563C418.014 254.97 419.477 247.89 417.951 241.14C416.313 233.906 411.425 227.833 404.707 224.691L404.335 224.518C398.387 220.782 391.097 219.849 384.399 221.965L367.586 227.278C362.673 228.83 357.383 228.714 352.543 226.947C348.202 225.363 343.489 225.102 339.001 226.197Z" fill="white"/>
<path d="M39.4047 58.2073L40.5144 59.6631C43.1919 63.1762 47.785 64.632 51.9979 63.3036L52.1932 63.2419C53.0833 62.9611 54.0112 62.818 54.9445 62.818H57.8893C63.0567 62.818 66.5428 68.0992 64.5124 72.8508C61.7008 80.4211 53.9158 84.9342 45.9495 83.6116L45.2578 83.4969C44.028 83.2926 42.8229 82.9591 41.6632 82.5019L41.4531 82.4187C34.2895 79.5945 26.1391 81.1699 20.5443 86.4606L13.054 93.5436C11.7045 94.8198 10.2415 95.9695 8.68264 96.9789C-4.88715 105.766 -22.958 102.416 -32.4775 89.35L-34.4874 86.5915C-38.5623 80.998 -40.0246 73.9182 -38.4989 67.1686C-36.8637 59.934 -31.9753 53.8617 -25.2566 50.7198L-24.8851 50.5461C-18.9364 46.8106 -11.647 45.8773 -4.94907 47.9937L14.9116 54.2689C17.8492 55.1973 21.0114 55.1275 23.9058 54.0714L24.5155 53.8486C29.8975 51.8844 35.9316 53.6511 39.4047 58.2073Z" fill="white"/>
</g>
<g opacity="0.4" filter="url(#filter3_f_171_266)">
<path d="M119.385 -49.7959C7.70021 69.7522 76.3803 265.536 238.273 289.115L290.179 296.675L-169.774 246.351L119.385 -49.7959Z" fill="#1E819A"/>
</g>
<g opacity="0.3" filter="url(#filter4_f_171_266)">
<path d="M156.962 318.875C275.821 206.458 219.371 6.80348 59.2452 -26.7349L7.90546 -37.488L463.87 41.1639L156.962 318.875Z" fill="white"/>
</g>
</g>
<defs>
<filter id="filter0_d_171_266" x="-167.1" y="4.93384" width="442.557" height="289.454" filterUnits="userSpaceOnUse" color-interpolation-filters="sRGB">
<feFlood flood-opacity="0" result="BackgroundImageFix"/>
<feColorMatrix in="SourceAlpha" type="matrix" values="0 0 0 0 0 0 0 0 0 0 0 0 0 0 0 0 0 0 127 0" result="hardAlpha"/>
<feOffset dy="4"/>
<feGaussianBlur stdDeviation="10"/>
<feComposite in2="hardAlpha" operator="out"/>
<feColorMatrix type="matrix" values="0 0 0 0 0.160417 0 0 0 0 0.619952 0 0 0 0 0.7 0 0 0 1 0"/>
<feBlend mode="normal" in2="BackgroundImageFix" result="effect1_dropShadow_171_266"/>
<feBlend mode="normal" in="SourceGraphic" in2="effect1_dropShadow_171_266" result="shape"/>
</filter>
<filter id="filter1_d_171_266" x="237.9" y="4.93384" width="442.556" height="289.454" filterUnits="userSpaceOnUse" color-interpolation-filters="sRGB">
<feFlood flood-opacity="0" result="BackgroundImageFix"/>
<feColorMatrix in="SourceAlpha" type="matrix" values="0 0 0 0 0 0 0 0 0 0 0 0 0 0 0 0 0 0 127 0" result="hardAlpha"/>
<feOffset dy="4"/>
<feGaussianBlur stdDeviation="10"/>
<feComposite in2="hardAlpha" operator="out"/>
<feColorMatrix type="matrix" values="0 0 0 0 0.160417 0 0 0 0 0.619952 0 0 0 0 0.7 0 0 0 1 0"/>
<feBlend mode="normal" in2="BackgroundImageFix" result="effect1_dropShadow_171_266"/>
<feBlend mode="normal" in="SourceGraphic" in2="effect1_dropShadow_171_266" result="shape"/>
</filter>
<filter id="filter2_f_171_266" x="-59.0896" y="-16.0657" width="497.631" height="311.909" filterUnits="userSpaceOnUse" color-interpolation-filters="sRGB">
<feFlood flood-opacity="0" result="BackgroundImageFix"/>
<feBlend mode="normal" in="SourceGraphic" in2="BackgroundImageFix" result="shape"/>
<feGaussianBlur stdDeviation="10" result="effect1_foregroundBlur_171_266"/>
</filter>
<filter id="filter3_f_171_266" x="-209.774" y="-89.7959" width="539.953" height="426.47" filterUnits="userSpaceOnUse" color-interpolation-filters="sRGB">
<feFlood flood-opacity="0" result="BackgroundImageFix"/>
<feBlend mode="normal" in="SourceGraphic" in2="BackgroundImageFix" result="shape"/>
<feGaussianBlur stdDeviation="20" result="effect1_foregroundBlur_171_266"/>
</filter>
<filter id="filter4_f_171_266" x="-72.0945" y="-117.488" width="615.965" height="516.363" filterUnits="userSpaceOnUse" color-interpolation-filters="sRGB">
<feFlood flood-opacity="0" result="BackgroundImageFix"/>
<feBlend mode="normal" in="SourceGraphic" in2="BackgroundImageFix" result="shape"/>
<feGaussianBlur stdDeviation="40" result="effect1_foregroundBlur_171_266"/>
</filter>
<linearGradient id="paint0_linear_171_266" x1="69.7723" y1="140.304" x2="299.5" y2="120.786" gradientUnits="userSpaceOnUse">
<stop stop-color="#228EA9"/>
<stop offset="1" stop-color="#02DEFE"/>
</linearGradient>
</defs>
</svg>
