<svg width="838" height="838" viewBox="0 0 838 838" fill="none" xmlns="http://www.w3.org/2000/svg">
<g filter="url(#filter0_d_3_678)">
<g clip-path="url(#clip0_3_678)">
<rect x="80.1677" y="163.672" width="600" height="600" rx="300" transform="rotate(-8 80.1677 163.672)" fill="url(#paint0_linear_3_678)"/>
<g filter="url(#filter1_f_3_678)">
<path opacity="0.8" d="M-1279.84 737.533L-1087.61 644.991C-1031.89 618.165 -969.161 609.467 -908.241 620.117L-794.631 639.979C-734.067 650.567 -671.71 642.034 -616.218 615.563L-504.738 562.387C-449.58 536.076 -387.63 527.483 -327.393 537.787L-209.676 557.922C-148.717 568.349 -86.0234 559.421 -30.3989 532.392L75.7438 480.814C131.701 453.622 194.804 444.754 256.089 455.468L371.747 475.688C433.032 486.402 496.135 477.534 552.092 450.342L657.697 399.026C713.654 371.834 776.757 362.966 838.042 373.68L1047.97 410.38" stroke="#D66C14" stroke-width="32"/>
<path opacity="0.5" d="M-1380.35 850.4L-1188.12 757.857C-1132.4 731.032 -1069.67 722.333 -1008.75 732.984L-895.142 752.846C-834.579 763.434 -772.221 754.9 -716.729 728.43L-605.249 675.254C-550.091 648.943 -488.142 640.349 -427.905 650.653L-310.187 670.789C-249.228 681.216 -186.535 672.288 -130.91 645.258L-24.7674 593.68C31.1902 566.489 94.2929 557.62 155.578 568.335L271.236 588.554C332.521 599.269 395.624 590.4 451.581 563.209L557.186 511.892C613.143 484.701 676.246 475.832 737.531 486.546L947.459 523.247" stroke="#D66C14" stroke-width="24"/>
<path d="M-1313.98 778.684L-1121.74 686.142C-1066.02 659.316 -1003.3 650.618 -942.376 661.268L-828.765 681.13C-768.202 691.718 -705.844 683.185 -650.352 656.714L-538.873 603.538C-483.715 577.227 -421.765 568.634 -361.528 578.938L-243.81 599.073C-182.852 609.5 -120.158 600.572 -64.5336 573.543L41.6092 521.965C97.5667 494.773 160.669 485.905 221.954 496.619L337.613 516.839C398.897 527.553 462 518.685 517.958 491.493L623.562 440.177C679.52 412.985 742.622 404.117 803.907 414.831L1013.84 451.531" stroke="#D66C14" stroke-width="16"/>
<path d="M-1347.73 803.624L-1155.5 711.082C-1099.77 684.256 -1037.05 675.558 -976.128 686.208L-862.517 706.07C-801.954 716.658 -739.596 708.125 -684.104 681.655L-572.624 628.478C-517.466 602.167 -455.517 593.574 -395.28 603.878L-277.562 624.013C-216.603 634.441 -153.91 625.512 -98.2853 598.483L7.85748 546.905C63.815 519.713 126.918 510.845 188.203 521.559L303.861 541.779C365.146 552.493 428.248 543.625 484.206 516.433L589.81 465.117C645.768 437.925 708.871 429.057 770.156 439.771L980.084 476.472" stroke="#D66C14" stroke-width="8"/>
<path d="M-1335.3 811.429L-1143.07 718.887C-1087.34 692.061 -1024.62 683.363 -963.699 694.013L-850.088 713.875C-789.525 724.463 -727.167 715.93 -671.675 689.459L-560.195 636.283C-505.037 609.972 -443.088 601.379 -382.851 611.683L-265.133 631.818C-204.174 642.245 -141.481 633.317 -85.8562 606.288L20.2866 554.71C76.2441 527.518 139.347 518.65 200.632 529.364L316.29 549.584C377.575 560.298 440.678 551.43 496.635 524.238L602.24 472.922C658.197 445.73 721.3 436.862 782.585 447.576L992.513 484.276" stroke="#D66C14" stroke-width="4"/>
<path d="M-1359.52 826.303L-1167.29 733.761C-1111.56 706.936 -1048.84 698.237 -987.919 708.888L-874.308 728.749C-813.745 739.337 -751.387 730.804 -695.895 704.334L-584.415 651.157C-529.257 624.847 -467.308 616.253 -407.071 626.557L-289.353 646.693C-228.394 657.12 -165.701 648.192 -110.076 621.162L-3.93341 569.584C52.0241 542.393 115.127 533.524 176.412 544.238L292.07 564.458C353.355 575.172 416.458 566.304 472.415 539.112L578.02 487.796C633.977 460.605 697.08 451.736 758.365 462.45L968.293 499.151" stroke="#D66C14" stroke-width="4"/>
<path d="M-1335.6 921.737L-1131.77 825.863C-1077.46 800.317 -1016.67 791.884 -957.46 801.682L-829.166 822.911C-770.301 832.651 -709.867 824.375 -655.789 799.168L-530.324 740.686C-476.572 715.631 -416.533 707.3 -357.99 716.773L-225.477 738.214C-166.231 747.801 -105.47 739.151 -51.2524 713.411L68.773 656.43C123.316 630.536 184.473 621.941 244.041 631.798L374.551 653.394C434.118 663.25 495.275 654.655 549.818 628.761L669.32 572.029C723.863 546.135 785.02 537.54 844.588 547.397L1066.59 584.132" stroke="#D66C14" stroke-width="2"/>
<path d="M-1373.79 941.889L-1169.97 846.015C-1115.66 820.469 -1054.87 812.036 -995.656 821.834L-867.362 843.063C-808.497 852.804 -748.063 844.528 -693.985 819.32L-568.52 760.838C-514.768 735.783 -454.729 727.452 -396.186 736.925L-263.673 758.366C-204.427 767.953 -143.666 759.303 -89.4484 733.564L30.577 676.582C85.12 650.688 146.277 642.093 205.845 651.95L336.355 673.546C395.922 683.403 457.079 674.807 511.622 648.913L631.124 592.181C685.667 566.287 746.824 557.692 806.391 567.549L1028.39 604.284" stroke="#D66C14" stroke-width="2"/>
<path d="M-1328.95 949.647L-1125.13 853.772C-1070.82 828.226 -1010.03 819.793 -950.817 829.591L-822.522 850.821C-763.658 860.561 -703.224 852.285 -649.146 827.078L-523.681 768.596C-469.929 743.541 -409.89 735.21 -351.347 744.682L-218.834 766.124C-159.587 775.71 -98.8266 767.06 -44.6092 741.321L75.4162 684.34C129.959 658.446 191.116 649.851 250.684 659.707L381.194 681.303C440.761 691.16 501.918 682.565 556.462 656.671L675.963 599.938C730.506 574.044 791.663 565.449 851.231 575.306L1073.23 612.041" stroke="#D66C14" stroke-width="8"/>
<path opacity="0.8" d="M-1344.4 961.915L-1140.57 866.041C-1086.26 840.495 -1025.47 832.062 -966.259 841.86L-837.965 863.089C-779.101 872.83 -718.667 864.554 -664.588 839.346L-539.123 780.865C-485.371 755.81 -425.333 747.478 -366.79 756.951L-234.277 778.393C-175.03 787.979 -114.269 779.329 -60.0519 753.59L59.9735 696.608C114.517 670.714 175.674 662.119 235.241 671.976L365.751 693.572C425.319 703.429 486.476 694.834 541.019 668.94L660.52 612.207C715.063 586.313 776.221 577.718 835.788 587.575L1057.79 624.31" stroke="#D66C14" stroke-width="16"/>
<path d="M-1323.43 989.325L-1119.61 893.45C-1065.3 867.905 -1004.51 859.472 -945.295 869.27L-817.001 890.499C-758.137 900.239 -697.703 891.963 -643.624 866.756L-518.159 808.274C-464.407 783.219 -404.369 774.888 -345.826 784.361L-213.313 805.802C-154.066 815.389 -93.3053 806.739 -39.0879 780.999L80.9375 724.018C135.48 698.124 196.638 689.529 256.205 699.386L386.715 720.982C446.283 730.838 507.44 722.243 561.983 696.349L681.484 639.617C736.027 613.723 797.185 605.128 856.752 614.984L1078.75 651.72" stroke="#D66C14" stroke-width="4"/>
<path d="M-1316.97 719.525L-1124.74 626.983C-1069.01 600.157 -1006.29 591.459 -945.368 602.109L-831.757 621.971C-771.194 632.559 -708.836 624.025 -653.344 597.555L-541.865 544.379C-486.707 518.068 -424.757 509.475 -364.52 519.778L-246.802 539.914C-185.844 550.341 -123.15 541.413 -67.5254 514.383L38.6174 462.806C94.5749 435.614 157.678 426.746 218.963 437.46L334.621 457.68C395.906 468.394 459.008 459.525 514.966 432.334L620.57 381.017C676.528 353.826 739.631 344.957 800.916 355.671L1010.84 392.372" stroke="#D66C14" stroke-width="8"/>
<path d="M-1344.74 710.617L-1152.51 618.075C-1096.79 591.249 -1034.06 582.551 -973.141 593.201L-859.53 613.063C-798.967 623.651 -736.609 615.118 -681.117 588.648L-569.638 535.471C-514.48 509.16 -452.53 500.567 -392.293 510.871L-274.575 531.007C-213.616 541.434 -150.923 532.506 -95.2983 505.476L10.8444 453.898C66.802 426.707 129.905 417.838 191.19 428.552L306.848 448.772C368.133 459.486 431.235 450.618 487.193 423.426L592.797 372.11C648.755 344.918 711.858 336.05 773.143 346.764L983.071 383.465" stroke="#D66C14" stroke-width="4"/>
<path opacity="0.5" d="M-1495.62 526.509L-1291.79 430.635C-1237.48 405.089 -1176.69 396.656 -1117.48 406.454L-989.185 427.683C-930.321 437.424 -869.887 429.148 -815.808 403.94L-690.343 345.459C-636.591 320.404 -576.552 312.072 -518.009 321.545L-385.496 342.987C-326.25 352.573 -265.489 343.923 -211.272 318.184L-91.2463 261.202C-36.7033 235.308 24.4539 226.713 84.0214 236.57L214.531 258.166C274.099 268.023 335.256 259.428 389.799 233.534L509.301 176.801C563.844 150.907 625.001 142.312 684.568 152.169L906.571 188.904" stroke="#D66C14" stroke-width="8"/>
<path d="M-1457.35 504.926L-1253.53 409.052C-1199.22 383.506 -1138.42 375.073 -1079.21 384.871L-950.919 406.1C-892.054 415.84 -831.621 407.564 -777.542 382.357L-652.077 323.875C-598.325 298.82 -538.286 290.489 -479.743 299.962L-347.23 321.403C-287.984 330.99 -227.223 322.34 -173.006 296.6L-52.9802 239.619C1.56284 213.725 62.72 205.13 122.288 214.987L252.797 236.583C312.365 246.439 373.522 237.844 428.065 211.95L547.567 155.218C602.11 129.324 663.267 120.729 722.834 130.585L944.837 167.321" stroke="#D66C14" stroke-width="4"/>
<path opacity="0.7" d="M-1454.29 434.496L-1250.46 338.621C-1196.15 313.075 -1135.36 304.642 -1076.15 314.44L-947.855 335.669C-888.991 345.41 -828.557 337.134 -774.479 311.927L-649.014 253.445C-595.262 228.39 -535.223 220.059 -476.68 229.531L-344.167 250.973C-284.92 260.559 -224.159 251.909 -169.942 226.17L-49.9166 169.188C4.62644 143.294 65.7836 134.699 125.351 144.556L255.861 166.152C315.428 176.009 376.586 167.414 431.129 141.52L550.63 84.7871C605.173 58.8931 666.33 50.298 725.898 60.1548L947.9 96.8901" stroke="#D66C14" stroke-width="4"/>
<path opacity="0.8" d="M-1494.95 556.416L-1291.12 460.541C-1236.82 434.995 -1176.02 426.562 -1116.81 436.36L-988.518 457.589C-929.654 467.33 -869.22 459.054 -815.142 433.847L-689.677 375.365C-635.925 350.31 -575.886 341.979 -517.343 351.451L-384.83 372.893C-325.583 382.479 -264.823 373.829 -210.605 348.09L-90.5797 291.109C-36.0366 265.215 25.1206 256.62 84.688 266.476L215.198 288.072C274.765 297.929 335.923 289.334 390.466 263.44L509.967 206.707C564.51 180.813 625.667 172.218 685.235 182.075L907.237 218.81" stroke="#D66C14" stroke-width="16"/>
<path opacity="0.7" d="M-1483.98 605.28L-1280.15 509.405C-1225.85 483.859 -1165.05 475.426 -1105.84 485.224L-977.548 506.453C-918.684 516.194 -858.25 507.918 -804.172 482.711L-678.707 424.229C-624.955 399.174 -564.916 390.843 -506.373 400.315L-373.86 421.757C-314.614 431.343 -253.853 422.693 -199.635 396.954L-79.6098 339.972C-25.0668 314.079 36.0904 305.483 95.6579 315.34L226.168 336.936C285.735 346.793 346.892 338.198 401.435 312.304L520.937 255.571C575.48 229.677 636.637 221.082 696.205 230.939L918.207 267.674" stroke="#D66C14" stroke-width="8"/>
<path opacity="0.7" d="M-1536.98 592.531L-1333.15 496.656C-1278.84 471.111 -1218.05 462.678 -1158.84 472.476L-1030.54 493.705C-971.68 503.445 -911.246 495.169 -857.168 469.962L-731.703 411.48C-677.951 386.425 -617.912 378.094 -559.369 387.567L-426.856 409.008C-367.61 418.595 -306.849 409.945 -252.631 384.205L-132.606 327.224C-78.0629 301.33 -16.9057 292.735 42.6618 302.592L173.172 324.188C232.739 334.044 293.896 325.449 348.439 299.555L467.941 242.823C522.484 216.929 583.641 208.334 643.209 218.19L865.211 254.926" stroke="#D66C14" stroke-width="8"/>
<path d="M-1530.43 547.014L-1326.61 451.139C-1272.3 425.593 -1211.51 417.16 -1152.3 426.958L-1024 448.187C-965.138 457.928 -904.704 449.652 -850.626 424.445L-725.161 365.963C-671.409 340.908 -611.37 332.577 -552.827 342.049L-420.314 363.491C-361.067 373.077 -300.306 364.427 -246.089 338.688L-126.064 281.706C-71.5205 255.813 -10.3633 247.217 49.2041 257.074L179.714 278.67C239.281 288.527 300.439 279.932 354.982 254.038L474.483 197.305C529.026 171.411 590.183 162.816 649.751 172.673L871.753 209.408" stroke="#D66C14" stroke-width="4"/>
<path opacity="0.7" d="M682.756 510.179C685.99 522.297 648.507 547.497 608.196 559.52C567.885 571.542 531.289 578.372 528.055 566.254C524.821 554.137 556.174 527.659 596.486 515.637C636.797 503.615 679.523 498.061 682.756 510.179Z" fill="#D66C14"/>
<path opacity="0.6" d="M665.705 514.595C668.212 523.99 638.134 545.269 606.881 554.59C575.628 563.91 544.504 570.661 541.997 561.266C539.489 551.871 566.549 529.888 597.802 520.567C629.055 511.246 663.198 505.2 665.705 514.595Z" fill="#F8B375"/>
<path d="M609.025 249.558C611.065 259.065 596.681 274.738 580.77 278.64C564.86 282.542 548.824 283.976 546.783 274.469C544.743 264.962 557.47 248.113 573.38 244.211C589.291 240.309 606.984 240.051 609.025 249.558Z" fill="#F8B375"/>
<path opacity="0.6" d="M597.892 253.723C599.206 259.847 589.941 269.942 579.692 272.455C569.444 274.969 559.115 275.892 557.801 269.769C556.486 263.645 564.684 252.792 574.932 250.279C585.181 247.766 596.577 247.599 597.892 253.723Z" fill="#BA6824"/>
<path opacity="0.5" d="M654.456 517.186C656.035 523.105 630.854 540.646 607.217 547.695C583.58 554.744 557.586 562.691 556.007 556.772C554.427 550.853 577.86 533.31 601.497 526.26C625.134 519.211 652.876 511.267 654.456 517.186Z" fill="#D66C14"/>
<path opacity="0.6" d="M640.273 524.046C641.392 528.243 623.144 539.579 606.384 544.577C589.625 549.575 574.247 553.448 573.127 549.251C572.007 545.054 585.569 534.377 602.329 529.379C619.089 524.38 639.153 519.849 640.273 524.046Z" fill="#91470A"/>
<path opacity="0.6" d="M406.988 438.849C406.712 443.184 385.804 448.115 368.325 447.513C350.846 446.911 335.035 445.682 335.311 441.347C335.587 437.012 351.844 431.212 369.323 431.814C386.802 432.417 407.264 434.514 406.988 438.849Z" fill="#91470A"/>
<path d="M371.398 601.134C372.045 605.429 360.278 613.291 349.554 615.226C338.83 617.162 329.001 618.24 328.354 613.945C327.707 609.65 336.487 601.607 347.211 599.672C357.935 597.736 370.751 596.838 371.398 601.134Z" fill="#CE7422"/>
<path opacity="0.5" d="M391.249 221.661C390.352 217.161 375.097 214.999 357.51 218.505C339.923 222.012 322.751 230.993 323.649 235.493C324.546 239.992 343.443 239.664 361.03 236.158C378.616 232.651 392.146 226.161 391.249 221.661Z" fill="#D66C14"/>
<path opacity="0.4" d="M461.233 190.075C459.171 185.976 451.796 183.972 445.527 187.125C439.258 190.277 435.205 198.416 437.267 202.515C439.328 206.614 447.345 206.358 453.614 203.206C459.883 200.053 463.294 194.174 461.233 190.075Z" fill="#D66C14"/>
<path opacity="0.3" d="M293.316 257.613C292.678 253.07 288.838 248.455 284.977 248.998C281.117 249.54 277.872 255.5 278.51 260.044C279.149 264.587 283.622 267.365 287.482 266.823C291.343 266.28 293.955 262.157 293.316 257.613Z" fill="#D66C14"/>
<path opacity="0.3" d="M232.262 254.309C231.872 251.533 229.56 248.708 227.244 249.033C224.927 249.359 222.989 252.995 223.379 255.771C223.769 258.548 226.458 260.252 228.774 259.926C231.091 259.601 232.652 257.086 232.262 254.309Z" fill="#D66C14"/>
</g>
<g filter="url(#filter2_f_3_678)">
<path d="M326.384 17.3232C117.585 314.941 329.273 724.541 692.825 726.359L809.388 726.942L-218.346 758.451L326.384 17.3232Z" fill="url(#paint1_linear_3_678)" fill-opacity="0.4"/>
</g>
<g opacity="0.2" filter="url(#filter3_f_3_678)">
<path d="M523.096 816.998C749.888 532.853 563.917 110.953 201.173 86.6715L84.8685 78.8862L1112.59 110.95L523.096 816.998Z" fill="#FFEAB3"/>
</g>
</g>
</g>
<defs>
<filter id="filter0_d_3_678" x="0.167725" y="0.167664" width="837.665" height="837.665" filterUnits="userSpaceOnUse" color-interpolation-filters="sRGB">
<feFlood flood-opacity="0" result="BackgroundImageFix"/>
<feColorMatrix in="SourceAlpha" type="matrix" values="0 0 0 0 0 0 0 0 0 0 0 0 0 0 0 0 0 0 127 0" result="hardAlpha"/>
<feOffset/>
<feGaussianBlur stdDeviation="40"/>
<feComposite in2="hardAlpha" operator="out"/>
<feColorMatrix type="matrix" values="0 0 0 0 0.404167 0 0 0 0 0.156468 0 0 0 0 0.0690452 0 0 0 0.8 0"/>
<feBlend mode="normal" in2="BackgroundImageFix" result="effect1_dropShadow_3_678"/>
<feBlend mode="normal" in="SourceGraphic" in2="effect1_dropShadow_3_678" result="shape"/>
</filter>
<filter id="filter1_f_3_678" x="-1543.68" y="49.1835" width="2726.55" height="946.951" filterUnits="userSpaceOnUse" color-interpolation-filters="sRGB">
<feFlood flood-opacity="0" result="BackgroundImageFix"/>
<feBlend mode="normal" in="SourceGraphic" in2="BackgroundImageFix" result="shape"/>
<feGaussianBlur stdDeviation="2.5" result="effect1_foregroundBlur_3_678"/>
</filter>
<filter id="filter2_f_3_678" x="-258.346" y="-22.6768" width="1107.73" height="821.128" filterUnits="userSpaceOnUse" color-interpolation-filters="sRGB">
<feFlood flood-opacity="0" result="BackgroundImageFix"/>
<feBlend mode="normal" in="SourceGraphic" in2="BackgroundImageFix" result="shape"/>
<feGaussianBlur stdDeviation="20" result="effect1_foregroundBlur_3_678"/>
</filter>
<filter id="filter3_f_3_678" x="34.8684" y="28.8862" width="1127.72" height="838.112" filterUnits="userSpaceOnUse" color-interpolation-filters="sRGB">
<feFlood flood-opacity="0" result="BackgroundImageFix"/>
<feBlend mode="normal" in="SourceGraphic" in2="BackgroundImageFix" result="shape"/>
<feGaussianBlur stdDeviation="25" result="effect1_foregroundBlur_3_678"/>
</filter>
<linearGradient id="paint0_linear_3_678" x1="667.668" y1="377.671" x2="80.1677" y2="474.172" gradientUnits="userSpaceOnUse">
<stop stop-color="#F4E8D5"/>
<stop offset="1" stop-color="#FC7100"/>
</linearGradient>
<linearGradient id="paint1_linear_3_678" x1="78.5539" y1="594.085" x2="358.5" y2="489.5" gradientUnits="userSpaceOnUse">
<stop stop-color="#511D04"/>
<stop offset="1" stop-color="#CD7121"/>
</linearGradient>
<clipPath id="clip0_3_678">
<rect x="80.1677" y="163.672" width="600" height="600" rx="300" transform="rotate(-8 80.1677 163.672)" fill="white"/>
</clipPath>
</defs>
</svg>
