<svg width="1857" height="1789" viewBox="0 0 1857 1789" fill="none" xmlns="http://www.w3.org/2000/svg">
<g filter="url(#filter0_d_3_381)">
<g clip-path="url(#clip0_3_381)">
<rect x="224.995" y="331.288" width="1300" height="1282.39" rx="641.194" transform="rotate(-5 224.995 331.288)" fill="url(#paint0_linear_3_381)"/>
<g filter="url(#filter1_i_3_381)">
<path d="M524.73 449.673C509.519 458.984 495.846 452.946 486.29 437.335C476.734 421.724 481.318 401.52 496.528 392.209C511.739 382.898 529.923 388.168 539.48 403.779C549.036 419.39 539.94 440.362 524.73 449.673Z" fill="#E31949"/>
</g>
<g filter="url(#filter2_i_3_381)">
<path d="M524.035 437.146C514.429 443.026 498.974 441.78 493.094 432.174C487.213 422.567 492.527 405.619 502.133 399.738C511.74 393.858 524.901 399.496 530.782 409.103C536.663 418.71 533.642 431.265 524.035 437.146Z" fill="#C60C38"/>
</g>
<g filter="url(#filter3_i_3_381)">
<path d="M603.535 873.454C589.53 882.026 563.726 869.614 555.153 855.61C546.58 841.605 554.326 816.899 568.331 808.326C582.335 799.753 601.522 807.973 610.095 821.978C618.667 835.982 617.539 864.881 603.535 873.454Z" fill="#BA1F44"/>
</g>
<g filter="url(#filter4_i_3_381)">
<path d="M283.687 986.487C302.062 993.715 330.029 973.627 337.257 955.252C344.485 936.877 330.152 909.236 311.777 902.008C293.402 894.78 272.397 908.521 265.169 926.896C257.941 945.271 265.311 979.259 283.687 986.487Z" fill="#E31949"/>
</g>
<g filter="url(#filter5_i_3_381)">
<path d="M712.662 528.434C691.772 551.867 675.734 539.599 651.684 518.159C627.635 496.72 614.998 469.397 635.888 445.964C656.778 422.531 690.102 422.153 714.151 443.593C738.201 465.033 733.552 505.001 712.662 528.434Z" fill="#E31949"/>
</g>
<g filter="url(#filter6_i_3_381)">
<path d="M705.114 507.678C691.92 522.478 674.204 518.197 659.404 505.003C644.605 491.81 635.971 470.597 649.165 455.797C662.359 440.997 687.406 443.798 702.206 456.992C717.006 470.186 718.307 492.879 705.114 507.678Z" fill="#C60C38"/>
</g>
<g filter="url(#filter7_i_3_381)">
<path d="M764.019 902.831C733.3 907.597 728.76 888.124 723.869 856.597C718.977 825.07 726.514 796.228 757.233 791.462C787.951 786.696 813.664 807.381 818.556 838.908C823.447 870.435 794.737 898.065 764.019 902.831Z" fill="#E31949"/>
</g>
<g filter="url(#filter8_i_3_381)">
<path d="M771.312 882.212C751.91 885.223 741.061 870.799 738.051 851.398C735.041 831.997 741.792 810.346 761.193 807.336C780.595 804.326 797.98 822.232 800.99 841.633C804.001 861.034 790.713 879.202 771.312 882.212Z" fill="#C60C38"/>
</g>
<g filter="url(#filter9_i_3_381)">
<path d="M387.262 794.004C380.911 801.128 372.384 799.067 365.261 792.717C358.138 786.367 353.983 776.156 360.333 769.033C366.683 761.91 378.739 763.258 385.862 769.608C392.985 775.959 393.612 786.881 387.262 794.004Z" fill="#BA1F44"/>
</g>
<g filter="url(#filter10_i_3_381)">
<path d="M833.731 629.342C819.196 637.046 806.651 628.602 798.947 614.066C791.243 599.531 790.651 580.538 805.186 572.834C819.721 565.13 838.396 574.539 846.1 589.074C853.804 603.609 848.267 621.638 833.731 629.342Z" fill="#E31949"/>
</g>
<g opacity="0.5" filter="url(#filter11_i_3_381)">
<path d="M365.984 562.926C350.573 586.499 359.464 608.366 383.657 624.182C407.851 639.999 439.958 633.71 455.368 610.136C470.779 586.563 463.314 557.612 439.12 541.795C414.926 525.979 381.395 539.352 365.984 562.926Z" fill="#E31949"/>
</g>
<g filter="url(#filter12_i_3_381)">
<path d="M385.727 564.609C375.994 579.497 377.236 603.95 392.124 613.683C407.013 623.417 434.014 615.824 443.747 600.935C453.48 586.047 445.197 565.007 430.308 555.274C415.42 545.541 395.46 549.72 385.727 564.609Z" fill="#C60C38"/>
</g>
<g filter="url(#filter13_i_3_381)">
<path d="M395.296 460.402C392.433 464.781 392.799 471.973 397.178 474.836C401.557 477.698 409.498 475.465 412.361 471.086C415.224 466.707 412.787 460.519 408.408 457.656C404.029 454.794 398.159 456.023 395.296 460.402Z" fill="#E31949"/>
</g>
<g filter="url(#filter14_i_3_381)">
<path d="M266.165 361.279C263.303 365.658 263.668 372.85 268.047 375.713C272.426 378.576 280.368 376.343 283.23 371.964C286.093 367.585 283.657 361.396 279.278 358.534C274.899 355.671 269.028 356.9 266.165 361.279Z" fill="#E31949"/>
</g>
<g filter="url(#filter15_i_3_381)">
<path d="M817.624 882.38C814.762 886.759 815.127 893.951 819.506 896.813C823.885 899.676 831.827 897.443 834.689 893.064C837.552 888.685 835.116 882.497 830.737 879.634C826.358 876.771 820.487 878.001 817.624 882.38Z" fill="#C60C38"/>
</g>
<g filter="url(#filter16_i_3_381)">
<path d="M892.091 815.636C889.228 820.015 889.593 827.207 893.972 830.069C898.351 832.932 906.293 830.699 909.156 826.32C912.018 821.941 909.582 815.753 905.203 812.89C900.824 810.027 894.953 811.256 892.091 815.636Z" fill="#C60C38"/>
</g>
<g filter="url(#filter17_i_3_381)">
<path d="M827.089 761.093C824.227 765.472 824.592 772.664 828.971 775.527C833.35 778.39 841.292 776.156 844.154 771.777C847.017 767.398 844.581 761.21 840.202 758.348C835.823 755.485 829.952 756.714 827.089 761.093Z" fill="#C60C38"/>
</g>
<g filter="url(#filter18_i_3_381)">
<path d="M420.489 917.492C417.626 921.871 417.992 929.063 422.371 931.926C426.75 934.789 434.691 932.555 437.554 928.176C440.417 923.797 437.98 917.609 433.601 914.747C429.222 911.884 423.352 913.113 420.489 917.492Z" fill="#BA1F44"/>
</g>
<g opacity="0.8">
<g filter="url(#filter19_i_3_381)">
<path d="M337.788 444.456C321.264 439.86 299.156 448.141 294.56 464.665C289.963 481.188 304.824 503.783 321.348 508.38C337.872 512.976 354.787 499.221 359.383 482.698C363.98 466.174 354.311 449.053 337.788 444.456Z" fill="#E31949"/>
</g>
<g filter="url(#filter20_i_3_381)">
<path d="M326.018 453.633C316.807 451.071 304.484 455.687 301.921 464.898C299.359 474.109 307.643 486.704 316.854 489.266C326.065 491.828 335.494 484.161 338.056 474.95C340.618 465.739 335.229 456.195 326.018 453.633Z" fill="#C60C38"/>
</g>
</g>
<g filter="url(#filter21_i_3_381)">
<path d="M160.027 633.138C165.249 662.966 188.293 673.6 218.906 668.24C249.519 662.881 270.103 634.356 264.881 604.528C259.659 574.7 232.528 557.458 201.915 562.817C171.302 568.176 154.805 603.31 160.027 633.138Z" fill="#E31949"/>
</g>
<g filter="url(#filter22_i_3_381)">
<path d="M176.761 619.954C180.059 638.792 199 657.076 217.838 653.778C236.677 650.48 252.295 624.682 248.997 605.843C245.699 587.004 223.739 576.574 204.9 579.872C186.061 583.169 173.463 601.115 176.761 619.954Z" fill="#C60C38"/>
</g>
<g filter="url(#filter23_i_3_381)">
<path d="M623.049 305.566C606.508 330.869 616.05 354.339 642.019 371.316C667.988 388.293 702.449 381.543 718.99 356.24C735.531 330.937 727.518 299.862 701.55 282.886C675.581 265.909 639.59 280.264 623.049 305.566Z" fill="#E31949"/>
</g>
<g filter="url(#filter24_i_3_381)">
<path d="M644.24 307.372C633.793 323.353 635.126 349.6 651.107 360.047C667.087 370.494 696.069 362.344 706.516 346.364C716.963 330.383 708.072 307.8 692.092 297.353C676.111 286.906 654.687 291.392 644.24 307.372Z" fill="#C60C38"/>
</g>
<circle cx="500.366" cy="743.713" r="7.24396" transform="rotate(-5 500.366 743.713)" fill="#C60C38"/>
<circle cx="415.072" cy="749.938" r="7.24396" transform="rotate(-5 415.072 749.938)" fill="#BA1F44"/>
<circle cx="463.625" cy="489.996" r="7.24396" transform="rotate(-5 463.625 489.996)" fill="#E31949"/>
<circle cx="486.204" cy="858.899" r="7.24396" transform="rotate(-5 486.204 858.899)" fill="#BA1F44"/>
<circle cx="694.665" cy="886.69" r="7.24396" transform="rotate(-5 694.665 886.69)" fill="#BA1F44"/>
<circle cx="653.921" cy="975.09" r="7.24396" transform="rotate(-5 653.921 975.09)" fill="#E31949"/>
<circle cx="622.231" cy="751.389" r="7.24396" transform="rotate(-5 622.231 751.389)" fill="#E31949"/>
<circle cx="558.862" cy="438.745" r="7.24396" transform="rotate(-5 558.862 438.745)" fill="#E31949"/>
<circle cx="494.174" cy="506.715" r="7.24396" transform="rotate(-5 494.174 506.715)" fill="#E31949"/>
<circle cx="341.516" cy="590.363" r="7.24396" transform="rotate(-5 341.516 590.363)" fill="#BA1F44"/>
<circle cx="773.183" cy="359.668" r="7.24396" transform="rotate(-5 773.183 359.668)" fill="#BA1F44"/>
<path d="M-544.969 824.271L-341.678 740.4C-285.449 717.202 -223.439 711.889 -164.085 725.185L-43.606 752.174C15.401 765.392 77.0407 760.221 133.021 737.356L254.996 687.536C310.638 664.81 371.881 659.561 430.579 672.487L555.208 699.933C614.611 713.015 676.601 707.478 732.745 684.077L849.254 635.516C905.735 611.975 968.124 606.517 1027.83 619.893L1150.43 647.356C1210.14 660.732 1272.53 655.273 1329.01 631.732L1444.98 583.397C1501.46 559.856 1563.85 554.398 1623.56 567.774L1837.93 615.795" stroke="#A60823" stroke-width="16"/>
<path d="M-589.549 888.401L-386.258 804.529C-330.03 781.331 -268.02 776.019 -208.665 789.315L-88.1863 816.303C-29.1794 829.521 32.4604 824.35 88.4403 801.486L210.416 751.666C266.058 728.939 327.301 723.69 385.999 736.617L510.628 764.062C570.03 777.144 632.021 771.608 688.165 748.207L804.674 699.646C861.155 676.105 923.543 670.646 983.254 684.022L1105.85 711.485C1165.56 724.861 1227.95 719.403 1284.43 695.861L1400.4 647.527C1456.88 623.985 1519.27 618.527 1578.98 631.903L1793.35 679.924" stroke="#A60823" stroke-width="16"/>
<path d="M-636.744 922.644L-433.453 838.773C-377.225 815.575 -315.215 810.262 -255.86 823.558L-135.381 850.547C-76.3744 863.765 -14.7347 858.594 41.2452 835.729L163.221 785.909C218.863 763.183 280.106 757.934 338.804 770.86L463.433 798.306C522.835 811.388 584.826 805.851 640.97 782.45L757.479 733.89C813.96 710.348 876.348 704.89 936.059 718.266L1058.66 745.729C1118.37 759.105 1180.76 753.646 1237.24 730.105L1353.2 681.77C1409.68 658.229 1472.07 652.771 1531.78 666.147L1746.15 714.168" stroke="#A60823" stroke-width="24"/>
<path d="M-573.112 846.81L-369.82 762.938C-313.592 739.74 -251.582 734.428 -192.227 747.724L-71.7486 774.712C-12.7416 787.931 48.8981 782.759 104.878 759.895L226.854 710.075C282.496 687.348 343.738 682.099 402.437 695.026L527.066 722.471C586.468 735.553 648.458 730.017 704.603 706.616L821.111 658.055C877.592 634.514 939.981 629.055 999.692 642.431L1122.29 669.894C1182 683.27 1244.39 677.812 1300.87 654.271L1416.84 605.936C1473.32 582.395 1535.71 576.936 1595.42 590.312L1809.79 638.333" stroke="#A60823" stroke-width="8"/>
<path d="M-531.521 863.247L-328.23 779.376C-272.001 756.178 -209.991 750.866 -150.636 764.162L-30.1577 791.15C28.8492 804.368 90.489 799.197 146.469 776.333L268.444 726.513C324.087 703.786 385.329 698.537 444.027 711.463L568.656 738.909C628.059 751.991 690.049 746.455 746.194 723.054L862.702 674.493C919.183 650.951 981.572 645.493 1041.28 658.869L1163.88 686.332C1223.59 699.708 1285.98 694.25 1342.46 670.708L1458.43 622.374C1514.91 598.832 1577.3 593.374 1637.01 606.75L1851.38 654.771" stroke="#A60823" stroke-width="8"/>
<g opacity="0.3" filter="url(#filter25_f_3_381)">
<path d="M441.485 209.71C248.549 517.847 481.384 915.807 844.532 898.596L960.966 893.078L-63.7104 978.331L441.485 209.71Z" fill="#86041B"/>
</g>
<g opacity="0.3" filter="url(#filter26_f_3_381)">
<path d="M526.619 1031.25C795.608 786.668 678.909 340.612 324.607 259.103L211.01 232.97L1220.63 427.633L526.619 1031.25Z" fill="#FF698D"/>
</g>
</g>
</g>
<defs>
<filter id="filter0_d_3_381" x="-0.00512695" y="0.985718" width="1856.82" height="1840.81" filterUnits="userSpaceOnUse" color-interpolation-filters="sRGB">
<feFlood flood-opacity="0" result="BackgroundImageFix"/>
<feColorMatrix in="SourceAlpha" type="matrix" values="0 0 0 0 0 0 0 0 0 0 0 0 0 0 0 0 0 0 127 0" result="hardAlpha"/>
<feMorphology radius="25" operator="dilate" in="SourceAlpha" result="effect1_dropShadow_3_381"/>
<feOffset dy="8"/>
<feGaussianBlur stdDeviation="100"/>
<feComposite in2="hardAlpha" operator="out"/>
<feColorMatrix type="matrix" values="0 0 0 0 0.9125 0 0 0 0 0.0114062 0 0 0 0 0.221506 0 0 0 0.4 0"/>
<feBlend mode="normal" in2="BackgroundImageFix" result="effect1_dropShadow_3_381"/>
<feBlend mode="normal" in="SourceGraphic" in2="effect1_dropShadow_3_381" result="shape"/>
</filter>
<filter id="filter1_i_3_381" x="481.301" y="387.601" width="62.0942" height="70.1488" filterUnits="userSpaceOnUse" color-interpolation-filters="sRGB">
<feFlood flood-opacity="0" result="BackgroundImageFix"/>
<feBlend mode="normal" in="SourceGraphic" in2="BackgroundImageFix" result="shape"/>
<feColorMatrix in="SourceAlpha" type="matrix" values="0 0 0 0 0 0 0 0 0 0 0 0 0 0 0 0 0 0 127 0" result="hardAlpha"/>
<feOffset dy="3.66408"/>
<feGaussianBlur stdDeviation="3.66408"/>
<feComposite in2="hardAlpha" operator="arithmetic" k2="-1" k3="1"/>
<feColorMatrix type="matrix" values="0 0 0 0 0.541667 0 0 0 0 0.040625 0 0 0 0 0.142143 0 0 0 1 0"/>
<feBlend mode="normal" in2="shape" result="effect1_innerShadow_3_381"/>
</filter>
<filter id="filter2_i_3_381" x="490.634" y="397.342" width="43.1516" height="47.0247" filterUnits="userSpaceOnUse" color-interpolation-filters="sRGB">
<feFlood flood-opacity="0" result="BackgroundImageFix"/>
<feBlend mode="normal" in="SourceGraphic" in2="BackgroundImageFix" result="shape"/>
<feColorMatrix in="SourceAlpha" type="matrix" values="0 0 0 0 0 0 0 0 0 0 0 0 0 0 0 0 0 0 127 0" result="hardAlpha"/>
<feOffset dy="3.66408"/>
<feGaussianBlur stdDeviation="3.66408"/>
<feComposite in2="hardAlpha" operator="arithmetic" k2="-1" k3="1"/>
<feColorMatrix type="matrix" values="0 0 0 0 0.541667 0 0 0 0 0.040625 0 0 0 0 0.142143 0 0 0 1 0"/>
<feBlend mode="normal" in2="shape" result="effect1_innerShadow_3_381"/>
</filter>
<filter id="filter3_i_3_381" x="551.566" y="804.833" width="63.9622" height="75.1059" filterUnits="userSpaceOnUse" color-interpolation-filters="sRGB">
<feFlood flood-opacity="0" result="BackgroundImageFix"/>
<feBlend mode="normal" in="SourceGraphic" in2="BackgroundImageFix" result="shape"/>
<feColorMatrix in="SourceAlpha" type="matrix" values="0 0 0 0 0 0 0 0 0 0 0 0 0 0 0 0 0 0 127 0" result="hardAlpha"/>
<feOffset dy="3.66408"/>
<feGaussianBlur stdDeviation="3.66408"/>
<feComposite in2="hardAlpha" operator="arithmetic" k2="-1" k3="1"/>
<feColorMatrix type="matrix" values="0 0 0 0 0.541667 0 0 0 0 0.040625 0 0 0 0 0.142143 0 0 0 1 0"/>
<feBlend mode="normal" in2="shape" result="effect1_innerShadow_3_381"/>
</filter>
<filter id="filter4_i_3_381" x="262.428" y="900.046" width="76.7385" height="91.6149" filterUnits="userSpaceOnUse" color-interpolation-filters="sRGB">
<feFlood flood-opacity="0" result="BackgroundImageFix"/>
<feBlend mode="normal" in="SourceGraphic" in2="BackgroundImageFix" result="shape"/>
<feColorMatrix in="SourceAlpha" type="matrix" values="0 0 0 0 0 0 0 0 0 0 0 0 0 0 0 0 0 0 127 0" result="hardAlpha"/>
<feOffset dy="3.66408"/>
<feGaussianBlur stdDeviation="3.66408"/>
<feComposite in2="hardAlpha" operator="arithmetic" k2="-1" k3="1"/>
<feColorMatrix type="matrix" values="0 0 0 0 0.541667 0 0 0 0 0.040625 0 0 0 0 0.142143 0 0 0 1 0"/>
<feBlend mode="normal" in2="shape" result="effect1_innerShadow_3_381"/>
</filter>
<filter id="filter5_i_3_381" x="625.326" y="427.935" width="105.011" height="116.867" filterUnits="userSpaceOnUse" color-interpolation-filters="sRGB">
<feFlood flood-opacity="0" result="BackgroundImageFix"/>
<feBlend mode="normal" in="SourceGraphic" in2="BackgroundImageFix" result="shape"/>
<feColorMatrix in="SourceAlpha" type="matrix" values="0 0 0 0 0 0 0 0 0 0 0 0 0 0 0 0 0 0 127 0" result="hardAlpha"/>
<feOffset dy="3.66408"/>
<feGaussianBlur stdDeviation="3.66408"/>
<feComposite in2="hardAlpha" operator="arithmetic" k2="-1" k3="1"/>
<feColorMatrix type="matrix" values="0 0 0 0 0.541667 0 0 0 0 0.040625 0 0 0 0 0.142143 0 0 0 1 0"/>
<feBlend mode="normal" in2="shape" result="effect1_innerShadow_3_381"/>
</filter>
<filter id="filter6_i_3_381" x="642.66" y="445.844" width="71.5562" height="74.8184" filterUnits="userSpaceOnUse" color-interpolation-filters="sRGB">
<feFlood flood-opacity="0" result="BackgroundImageFix"/>
<feBlend mode="normal" in="SourceGraphic" in2="BackgroundImageFix" result="shape"/>
<feColorMatrix in="SourceAlpha" type="matrix" values="0 0 0 0 0 0 0 0 0 0 0 0 0 0 0 0 0 0 127 0" result="hardAlpha"/>
<feOffset dy="3.66408"/>
<feGaussianBlur stdDeviation="3.66408"/>
<feComposite in2="hardAlpha" operator="arithmetic" k2="-1" k3="1"/>
<feColorMatrix type="matrix" values="0 0 0 0 0.541667 0 0 0 0 0.040625 0 0 0 0 0.142143 0 0 0 1 0"/>
<feBlend mode="normal" in2="shape" result="effect1_innerShadow_3_381"/>
</filter>
<filter id="filter7_i_3_381" x="722.498" y="790.781" width="96.605" height="116.429" filterUnits="userSpaceOnUse" color-interpolation-filters="sRGB">
<feFlood flood-opacity="0" result="BackgroundImageFix"/>
<feBlend mode="normal" in="SourceGraphic" in2="BackgroundImageFix" result="shape"/>
<feColorMatrix in="SourceAlpha" type="matrix" values="0 0 0 0 0 0 0 0 0 0 0 0 0 0 0 0 0 0 127 0" result="hardAlpha"/>
<feOffset dy="3.66408"/>
<feGaussianBlur stdDeviation="3.66408"/>
<feComposite in2="hardAlpha" operator="arithmetic" k2="-1" k3="1"/>
<feColorMatrix type="matrix" values="0 0 0 0 0.541667 0 0 0 0 0.040625 0 0 0 0 0.142143 0 0 0 1 0"/>
<feBlend mode="normal" in2="shape" result="effect1_innerShadow_3_381"/>
</filter>
<filter id="filter8_i_3_381" x="737.365" y="807.003" width="64.051" height="79.2714" filterUnits="userSpaceOnUse" color-interpolation-filters="sRGB">
<feFlood flood-opacity="0" result="BackgroundImageFix"/>
<feBlend mode="normal" in="SourceGraphic" in2="BackgroundImageFix" result="shape"/>
<feColorMatrix in="SourceAlpha" type="matrix" values="0 0 0 0 0 0 0 0 0 0 0 0 0 0 0 0 0 0 127 0" result="hardAlpha"/>
<feOffset dy="3.66408"/>
<feGaussianBlur stdDeviation="3.66408"/>
<feComposite in2="hardAlpha" operator="arithmetic" k2="-1" k3="1"/>
<feColorMatrix type="matrix" values="0 0 0 0 0.541667 0 0 0 0 0.040625 0 0 0 0 0.142143 0 0 0 1 0"/>
<feBlend mode="normal" in2="shape" result="effect1_innerShadow_3_381"/>
</filter>
<filter id="filter9_i_3_381" x="357.202" y="764.243" width="34.4409" height="37.9116" filterUnits="userSpaceOnUse" color-interpolation-filters="sRGB">
<feFlood flood-opacity="0" result="BackgroundImageFix"/>
<feBlend mode="normal" in="SourceGraphic" in2="BackgroundImageFix" result="shape"/>
<feColorMatrix in="SourceAlpha" type="matrix" values="0 0 0 0 0 0 0 0 0 0 0 0 0 0 0 0 0 0 127 0" result="hardAlpha"/>
<feOffset dy="3.66408"/>
<feGaussianBlur stdDeviation="3.66408"/>
<feComposite in2="hardAlpha" operator="arithmetic" k2="-1" k3="1"/>
<feColorMatrix type="matrix" values="0 0 0 0 0.541667 0 0 0 0 0.040625 0 0 0 0 0.142143 0 0 0 1 0"/>
<feBlend mode="normal" in2="shape" result="effect1_innerShadow_3_381"/>
</filter>
<filter id="filter10_i_3_381" x="793.59" y="570.077" width="55.9844" height="65.8399" filterUnits="userSpaceOnUse" color-interpolation-filters="sRGB">
<feFlood flood-opacity="0" result="BackgroundImageFix"/>
<feBlend mode="normal" in="SourceGraphic" in2="BackgroundImageFix" result="shape"/>
<feColorMatrix in="SourceAlpha" type="matrix" values="0 0 0 0 0 0 0 0 0 0 0 0 0 0 0 0 0 0 127 0" result="hardAlpha"/>
<feOffset dy="3.66408"/>
<feGaussianBlur stdDeviation="3.66408"/>
<feComposite in2="hardAlpha" operator="arithmetic" k2="-1" k3="1"/>
<feColorMatrix type="matrix" values="0 0 0 0 0.541667 0 0 0 0 0.040625 0 0 0 0 0.142143 0 0 0 1 0"/>
<feBlend mode="normal" in2="shape" result="effect1_innerShadow_3_381"/>
</filter>
<filter id="filter11_i_3_381" x="358.339" y="534.929" width="105.069" height="101.64" filterUnits="userSpaceOnUse" color-interpolation-filters="sRGB">
<feFlood flood-opacity="0" result="BackgroundImageFix"/>
<feBlend mode="normal" in="SourceGraphic" in2="BackgroundImageFix" result="shape"/>
<feColorMatrix in="SourceAlpha" type="matrix" values="0 0 0 0 0 0 0 0 0 0 0 0 0 0 0 0 0 0 127 0" result="hardAlpha"/>
<feOffset dy="3.66408"/>
<feGaussianBlur stdDeviation="3.66408"/>
<feComposite in2="hardAlpha" operator="arithmetic" k2="-1" k3="1"/>
<feColorMatrix type="matrix" values="0 0 0 0 0.541667 0 0 0 0 0.040625 0 0 0 0 0.142143 0 0 0 1 0"/>
<feBlend mode="normal" in2="shape" result="effect1_innerShadow_3_381"/>
</filter>
<filter id="filter12_i_3_381" x="379.469" y="550.021" width="68.4822" height="71.6825" filterUnits="userSpaceOnUse" color-interpolation-filters="sRGB">
<feFlood flood-opacity="0" result="BackgroundImageFix"/>
<feBlend mode="normal" in="SourceGraphic" in2="BackgroundImageFix" result="shape"/>
<feColorMatrix in="SourceAlpha" type="matrix" values="0 0 0 0 0 0 0 0 0 0 0 0 0 0 0 0 0 0 127 0" result="hardAlpha"/>
<feOffset dy="3.66408"/>
<feGaussianBlur stdDeviation="3.66408"/>
<feComposite in2="hardAlpha" operator="arithmetic" k2="-1" k3="1"/>
<feColorMatrix type="matrix" values="0 0 0 0 0.541667 0 0 0 0 0.040625 0 0 0 0 0.142143 0 0 0 1 0"/>
<feBlend mode="normal" in2="shape" result="effect1_innerShadow_3_381"/>
</filter>
<filter id="filter13_i_3_381" x="393.456" y="456.111" width="20.1418" height="23.6695" filterUnits="userSpaceOnUse" color-interpolation-filters="sRGB">
<feFlood flood-opacity="0" result="BackgroundImageFix"/>
<feBlend mode="normal" in="SourceGraphic" in2="BackgroundImageFix" result="shape"/>
<feColorMatrix in="SourceAlpha" type="matrix" values="0 0 0 0 0 0 0 0 0 0 0 0 0 0 0 0 0 0 127 0" result="hardAlpha"/>
<feOffset dy="3.66408"/>
<feGaussianBlur stdDeviation="3.66408"/>
<feComposite in2="hardAlpha" operator="arithmetic" k2="-1" k3="1"/>
<feColorMatrix type="matrix" values="0 0 0 0 0.541667 0 0 0 0 0.040625 0 0 0 0 0.142143 0 0 0 1 0"/>
<feBlend mode="normal" in2="shape" result="effect1_innerShadow_3_381"/>
</filter>
<filter id="filter14_i_3_381" x="264.325" y="356.989" width="20.1418" height="23.6695" filterUnits="userSpaceOnUse" color-interpolation-filters="sRGB">
<feFlood flood-opacity="0" result="BackgroundImageFix"/>
<feBlend mode="normal" in="SourceGraphic" in2="BackgroundImageFix" result="shape"/>
<feColorMatrix in="SourceAlpha" type="matrix" values="0 0 0 0 0 0 0 0 0 0 0 0 0 0 0 0 0 0 127 0" result="hardAlpha"/>
<feOffset dy="3.66408"/>
<feGaussianBlur stdDeviation="3.66408"/>
<feComposite in2="hardAlpha" operator="arithmetic" k2="-1" k3="1"/>
<feColorMatrix type="matrix" values="0 0 0 0 0.541667 0 0 0 0 0.040625 0 0 0 0 0.142143 0 0 0 1 0"/>
<feBlend mode="normal" in2="shape" result="effect1_innerShadow_3_381"/>
</filter>
<filter id="filter15_i_3_381" x="815.784" y="878.089" width="20.1418" height="23.6695" filterUnits="userSpaceOnUse" color-interpolation-filters="sRGB">
<feFlood flood-opacity="0" result="BackgroundImageFix"/>
<feBlend mode="normal" in="SourceGraphic" in2="BackgroundImageFix" result="shape"/>
<feColorMatrix in="SourceAlpha" type="matrix" values="0 0 0 0 0 0 0 0 0 0 0 0 0 0 0 0 0 0 127 0" result="hardAlpha"/>
<feOffset dy="3.66408"/>
<feGaussianBlur stdDeviation="3.66408"/>
<feComposite in2="hardAlpha" operator="arithmetic" k2="-1" k3="1"/>
<feColorMatrix type="matrix" values="0 0 0 0 0.541667 0 0 0 0 0.040625 0 0 0 0 0.142143 0 0 0 1 0"/>
<feBlend mode="normal" in2="shape" result="effect1_innerShadow_3_381"/>
</filter>
<filter id="filter16_i_3_381" x="890.25" y="811.345" width="20.1421" height="23.6695" filterUnits="userSpaceOnUse" color-interpolation-filters="sRGB">
<feFlood flood-opacity="0" result="BackgroundImageFix"/>
<feBlend mode="normal" in="SourceGraphic" in2="BackgroundImageFix" result="shape"/>
<feColorMatrix in="SourceAlpha" type="matrix" values="0 0 0 0 0 0 0 0 0 0 0 0 0 0 0 0 0 0 127 0" result="hardAlpha"/>
<feOffset dy="3.66408"/>
<feGaussianBlur stdDeviation="3.66408"/>
<feComposite in2="hardAlpha" operator="arithmetic" k2="-1" k3="1"/>
<feColorMatrix type="matrix" values="0 0 0 0 0.541667 0 0 0 0 0.040625 0 0 0 0 0.142143 0 0 0 1 0"/>
<feBlend mode="normal" in2="shape" result="effect1_innerShadow_3_381"/>
</filter>
<filter id="filter17_i_3_381" x="825.249" y="756.802" width="20.1418" height="23.6695" filterUnits="userSpaceOnUse" color-interpolation-filters="sRGB">
<feFlood flood-opacity="0" result="BackgroundImageFix"/>
<feBlend mode="normal" in="SourceGraphic" in2="BackgroundImageFix" result="shape"/>
<feColorMatrix in="SourceAlpha" type="matrix" values="0 0 0 0 0 0 0 0 0 0 0 0 0 0 0 0 0 0 127 0" result="hardAlpha"/>
<feOffset dy="3.66408"/>
<feGaussianBlur stdDeviation="3.66408"/>
<feComposite in2="hardAlpha" operator="arithmetic" k2="-1" k3="1"/>
<feColorMatrix type="matrix" values="0 0 0 0 0.541667 0 0 0 0 0.040625 0 0 0 0 0.142143 0 0 0 1 0"/>
<feBlend mode="normal" in2="shape" result="effect1_innerShadow_3_381"/>
</filter>
<filter id="filter18_i_3_381" x="418.649" y="913.202" width="20.1418" height="23.6695" filterUnits="userSpaceOnUse" color-interpolation-filters="sRGB">
<feFlood flood-opacity="0" result="BackgroundImageFix"/>
<feBlend mode="normal" in="SourceGraphic" in2="BackgroundImageFix" result="shape"/>
<feColorMatrix in="SourceAlpha" type="matrix" values="0 0 0 0 0 0 0 0 0 0 0 0 0 0 0 0 0 0 127 0" result="hardAlpha"/>
<feOffset dy="3.66408"/>
<feGaussianBlur stdDeviation="3.66408"/>
<feComposite in2="hardAlpha" operator="arithmetic" k2="-1" k3="1"/>
<feColorMatrix type="matrix" values="0 0 0 0 0.541667 0 0 0 0 0.040625 0 0 0 0 0.142143 0 0 0 1 0"/>
<feBlend mode="normal" in2="shape" result="effect1_innerShadow_3_381"/>
</filter>
<filter id="filter19_i_3_381" x="293.713" y="443.198" width="66.814" height="69.7429" filterUnits="userSpaceOnUse" color-interpolation-filters="sRGB">
<feFlood flood-opacity="0" result="BackgroundImageFix"/>
<feBlend mode="normal" in="SourceGraphic" in2="BackgroundImageFix" result="shape"/>
<feColorMatrix in="SourceAlpha" type="matrix" values="0 0 0 0 0 0 0 0 0 0 0 0 0 0 0 0 0 0 127 0" result="hardAlpha"/>
<feOffset dy="3.66408"/>
<feGaussianBlur stdDeviation="3.66408"/>
<feComposite in2="hardAlpha" operator="arithmetic" k2="-1" k3="1"/>
<feColorMatrix type="matrix" values="0 0 0 0 0.541667 0 0 0 0 0.040625 0 0 0 0 0.142143 0 0 0 1 0"/>
<feBlend mode="normal" in2="shape" result="effect1_innerShadow_3_381"/>
</filter>
<filter id="filter20_i_3_381" x="301.449" y="452.932" width="37.2441" height="40.4984" filterUnits="userSpaceOnUse" color-interpolation-filters="sRGB">
<feFlood flood-opacity="0" result="BackgroundImageFix"/>
<feBlend mode="normal" in="SourceGraphic" in2="BackgroundImageFix" result="shape"/>
<feColorMatrix in="SourceAlpha" type="matrix" values="0 0 0 0 0 0 0 0 0 0 0 0 0 0 0 0 0 0 127 0" result="hardAlpha"/>
<feOffset dy="3.66408"/>
<feGaussianBlur stdDeviation="3.66408"/>
<feComposite in2="hardAlpha" operator="arithmetic" k2="-1" k3="1"/>
<feColorMatrix type="matrix" values="0 0 0 0 0.541667 0 0 0 0 0.040625 0 0 0 0 0.142143 0 0 0 1 0"/>
<feBlend mode="normal" in2="shape" result="effect1_innerShadow_3_381"/>
</filter>
<filter id="filter21_i_3_381" x="159.072" y="561.847" width="106.619" height="111.39" filterUnits="userSpaceOnUse" color-interpolation-filters="sRGB">
<feFlood flood-opacity="0" result="BackgroundImageFix"/>
<feBlend mode="normal" in="SourceGraphic" in2="BackgroundImageFix" result="shape"/>
<feColorMatrix in="SourceAlpha" type="matrix" values="0 0 0 0 0 0 0 0 0 0 0 0 0 0 0 0 0 0 127 0" result="hardAlpha"/>
<feOffset dy="3.66408"/>
<feGaussianBlur stdDeviation="3.66408"/>
<feComposite in2="hardAlpha" operator="arithmetic" k2="-1" k3="1"/>
<feColorMatrix type="matrix" values="0 0 0 0 0.541667 0 0 0 0 0.040625 0 0 0 0 0.142143 0 0 0 1 0"/>
<feBlend mode="normal" in2="shape" result="effect1_innerShadow_3_381"/>
</filter>
<filter id="filter22_i_3_381" x="176.237" y="579.268" width="73.2029" height="78.5622" filterUnits="userSpaceOnUse" color-interpolation-filters="sRGB">
<feFlood flood-opacity="0" result="BackgroundImageFix"/>
<feBlend mode="normal" in="SourceGraphic" in2="BackgroundImageFix" result="shape"/>
<feColorMatrix in="SourceAlpha" type="matrix" values="0 0 0 0 0 0 0 0 0 0 0 0 0 0 0 0 0 0 127 0" result="hardAlpha"/>
<feOffset dy="3.66408"/>
<feGaussianBlur stdDeviation="3.66408"/>
<feComposite in2="hardAlpha" operator="arithmetic" k2="-1" k3="1"/>
<feColorMatrix type="matrix" values="0 0 0 0 0.541667 0 0 0 0 0.040625 0 0 0 0 0.142143 0 0 0 1 0"/>
<feBlend mode="normal" in2="shape" result="effect1_innerShadow_3_381"/>
</filter>
<filter id="filter23_i_3_381" x="614.843" y="275.516" width="112.776" height="108.826" filterUnits="userSpaceOnUse" color-interpolation-filters="sRGB">
<feFlood flood-opacity="0" result="BackgroundImageFix"/>
<feBlend mode="normal" in="SourceGraphic" in2="BackgroundImageFix" result="shape"/>
<feColorMatrix in="SourceAlpha" type="matrix" values="0 0 0 0 0 0 0 0 0 0 0 0 0 0 0 0 0 0 127 0" result="hardAlpha"/>
<feOffset dy="3.66408"/>
<feGaussianBlur stdDeviation="3.66408"/>
<feComposite in2="hardAlpha" operator="arithmetic" k2="-1" k3="1"/>
<feColorMatrix type="matrix" values="0 0 0 0 0.541667 0 0 0 0 0.040625 0 0 0 0 0.142143 0 0 0 1 0"/>
<feBlend mode="normal" in2="shape" result="effect1_innerShadow_3_381"/>
</filter>
<filter id="filter24_i_3_381" x="637.523" y="291.715" width="73.5054" height="76.6717" filterUnits="userSpaceOnUse" color-interpolation-filters="sRGB">
<feFlood flood-opacity="0" result="BackgroundImageFix"/>
<feBlend mode="normal" in="SourceGraphic" in2="BackgroundImageFix" result="shape"/>
<feColorMatrix in="SourceAlpha" type="matrix" values="0 0 0 0 0 0 0 0 0 0 0 0 0 0 0 0 0 0 127 0" result="hardAlpha"/>
<feOffset dy="3.66408"/>
<feGaussianBlur stdDeviation="3.66408"/>
<feComposite in2="hardAlpha" operator="arithmetic" k2="-1" k3="1"/>
<feColorMatrix type="matrix" values="0 0 0 0 0.541667 0 0 0 0 0.040625 0 0 0 0 0.142143 0 0 0 1 0"/>
<feBlend mode="normal" in2="shape" result="effect1_innerShadow_3_381"/>
</filter>
<filter id="filter25_f_3_381" x="-123.71" y="149.71" width="1144.68" height="888.622" filterUnits="userSpaceOnUse" color-interpolation-filters="sRGB">
<feFlood flood-opacity="0" result="BackgroundImageFix"/>
<feBlend mode="normal" in="SourceGraphic" in2="BackgroundImageFix" result="shape"/>
<feGaussianBlur stdDeviation="30" result="effect1_foregroundBlur_3_381"/>
</filter>
<filter id="filter26_f_3_381" x="121.01" y="142.97" width="1189.62" height="978.275" filterUnits="userSpaceOnUse" color-interpolation-filters="sRGB">
<feFlood flood-opacity="0" result="BackgroundImageFix"/>
<feBlend mode="normal" in="SourceGraphic" in2="BackgroundImageFix" result="shape"/>
<feGaussianBlur stdDeviation="45" result="effect1_foregroundBlur_3_381"/>
</filter>
<linearGradient id="paint0_linear_3_381" x1="1341.91" y1="539.676" x2="-115.625" y2="1938.1" gradientUnits="userSpaceOnUse">
<stop stop-color="#F3164E"/>
<stop offset="1" stop-color="#8B0119"/>
</linearGradient>
<clipPath id="clip0_3_381">
<rect x="224.995" y="331.288" width="1300" height="1282.39" rx="641.194" transform="rotate(-5 224.995 331.288)" fill="white"/>
</clipPath>
</defs>
</svg>
