<svg width="760" height="760" viewBox="0 0 760 760" fill="none" xmlns="http://www.w3.org/2000/svg">
<g filter="url(#filter0_d_3_792)">
<g clip-path="url(#clip0_3_792)">
<rect x="79.9998" y="80.0005" width="600" height="600" rx="300" fill="url(#paint0_linear_3_792)"/>
<g filter="url(#filter1_f_3_792)">
<path opacity="0.8" d="M-1346.64 459L-1143.4 394.112C-1084.49 375.302 -1021.16 375.418 -962.315 394.444L-852.575 429.924C-794.074 448.837 -731.136 449.065 -672.5 430.576L-554.704 393.432C-496.421 375.054 -433.879 375.166 -375.662 393.753L-261.892 430.076C-202.978 448.885 -139.652 448.769 -80.8068 429.744L31.4812 393.44C90.6785 374.301 154.401 374.301 213.599 393.44L325.317 429.56C384.515 448.699 448.238 448.699 507.435 429.56L619.153 393.44C678.351 374.301 742.074 374.301 801.271 393.44L1004.05 459" stroke="#00D5F5" stroke-width="32"/>
<path opacity="0.5" d="M-1461.88 556.78L-1258.64 491.892C-1199.73 473.083 -1136.4 473.199 -1077.56 492.224L-967.816 527.704C-909.315 546.618 -846.377 546.846 -787.741 528.356L-669.945 491.212C-611.662 472.834 -549.12 472.946 -490.903 491.533L-377.133 527.856C-318.219 546.665 -254.893 546.549 -196.048 527.524L-83.7599 491.22C-24.5626 472.081 39.1603 472.081 98.3576 491.22L210.076 527.34C269.274 546.479 332.996 546.479 392.194 527.34L503.912 491.22C563.11 472.081 626.833 472.081 686.03 491.22L888.807 556.78" stroke="#00D5F5" stroke-width="24"/>
<path d="M-1386.17 495L-1182.93 430.112C-1124.02 411.302 -1060.69 411.418 -1001.84 430.444L-892.104 465.924C-833.604 484.837 -770.665 485.065 -712.029 466.576L-594.234 429.432C-535.951 411.054 -473.408 411.166 -415.191 429.753L-301.422 466.076C-242.507 484.885 -179.181 484.769 -120.336 465.744L-8.04832 429.44C51.149 410.301 114.872 410.301 174.069 429.44L285.788 465.56C344.985 484.699 408.708 484.699 467.905 465.56L579.624 429.44C638.821 410.301 702.544 410.301 761.741 429.44L964.519 495" stroke="#00D5F5" stroke-width="16"/>
<path d="M-1423.06 515L-1219.82 450.112C-1160.91 431.302 -1097.58 431.418 -1038.74 450.444L-928.998 485.924C-870.498 504.837 -807.559 505.065 -748.923 486.576L-631.128 449.432C-572.845 431.054 -510.302 431.166 -452.086 449.753L-338.316 486.076C-279.402 504.885 -216.075 504.769 -157.231 485.744L-44.9425 449.44C14.2548 430.301 77.9777 430.301 137.175 449.44L248.894 485.56C308.091 504.699 371.814 504.699 431.011 485.56L542.73 449.44C601.927 430.301 665.65 430.301 724.847 449.44L927.625 515" stroke="#00D5F5" stroke-width="8"/>
<path d="M-1411.84 524.459L-1208.6 459.571C-1149.69 440.761 -1086.36 440.877 -1027.52 459.903L-917.776 495.383C-859.276 514.296 -796.337 514.524 -737.702 496.035L-619.906 458.891C-561.623 440.513 -499.08 440.625 -440.864 459.212L-327.094 495.535C-268.18 514.344 -204.854 514.228 -146.009 495.203L-33.7206 458.899C25.4767 439.76 89.1996 439.76 148.397 458.899L260.116 495.019C319.313 514.158 383.036 514.158 442.233 495.019L553.952 458.899C613.149 439.76 676.872 439.76 736.069 458.899L938.846 524.459" stroke="#00D5F5" stroke-width="4"/>
<path d="M-1437.9 535.818L-1234.66 470.93C-1175.74 452.12 -1112.42 452.236 -1053.57 471.261L-943.831 506.742C-885.33 525.655 -822.392 525.883 -763.756 507.394L-645.961 470.25C-587.678 451.872 -525.135 451.984 -466.918 470.57L-353.148 506.893C-294.234 525.703 -230.908 525.587 -172.063 506.562L-59.7751 470.258C-0.577827 451.119 63.1451 451.119 122.342 470.258L234.061 506.378C293.258 525.517 356.981 525.517 416.178 506.378L527.897 470.258C587.094 451.119 650.817 451.119 710.015 470.258L912.792 535.818" stroke="#00D5F5" stroke-width="4"/>
<path d="M-1427.49 633.652L-1212.3 567.078C-1154.97 549.339 -1093.6 549.449 -1036.32 567.392L-912.232 606.27C-855.297 624.108 -794.299 624.323 -737.239 606.887L-604.856 566.436C-548.14 549.106 -487.526 549.211 -430.871 566.739L-302.631 606.414C-245.296 624.153 -183.922 624.044 -126.65 606.1L0.137226 566.378C57.7532 548.327 119.511 548.327 177.127 566.378L303.362 605.927C360.978 623.978 422.736 623.978 480.352 605.927L606.586 566.378C664.202 548.327 725.96 548.327 783.576 566.378L998.305 633.652" stroke="#00D5F5" stroke-width="2"/>
<path d="M-1468.12 648.292L-1252.93 581.717C-1195.6 563.979 -1134.22 564.088 -1076.95 582.032L-952.861 620.909C-895.925 638.747 -834.928 638.962 -777.867 621.527L-645.484 581.075C-588.769 563.745 -528.155 563.851 -471.5 581.379L-343.26 621.054C-285.925 638.793 -224.551 638.683 -167.279 620.74L-40.4917 581.017C17.1243 562.966 78.8825 562.966 136.498 581.017L262.733 620.567C320.349 638.618 382.107 638.618 439.723 620.567L565.957 581.017C623.573 562.966 685.331 562.966 742.947 581.017L957.676 648.292" stroke="#00D5F5" stroke-width="2"/>
<path d="M-1424.8 662.215L-1209.61 595.64C-1152.27 577.902 -1090.9 578.011 -1033.63 595.954L-909.538 634.832C-852.602 652.67 -791.605 652.885 -734.544 635.45L-602.161 594.998C-545.445 577.668 -484.831 577.774 -428.176 595.302L-299.937 634.977C-242.601 652.716 -181.228 652.606 -123.956 634.663L2.83156 594.94C60.4475 576.889 122.206 576.889 179.822 594.94L306.056 634.489C363.672 652.54 425.43 652.54 483.046 634.489L609.28 594.94C666.896 576.889 728.654 576.889 786.27 594.94L1001 662.215" stroke="#00D5F5" stroke-width="8"/>
<path opacity="0.8" d="M-1441.8 672.215L-1226.61 605.64C-1169.27 587.902 -1107.9 588.011 -1050.63 605.954L-926.538 644.832C-869.602 662.67 -808.605 662.885 -751.544 645.45L-619.161 604.998C-562.445 587.668 -501.831 587.774 -445.176 605.302L-316.937 644.977C-259.601 662.716 -198.228 662.606 -140.956 644.663L-14.1684 604.94C43.4475 586.889 105.206 586.889 162.822 604.94L289.056 644.489C346.672 662.54 408.43 662.54 466.046 644.489L592.28 604.94C649.896 586.889 711.655 586.889 769.27 604.94L984 672.215" stroke="#00D5F5" stroke-width="16"/>
<path d="M-1424.85 702.275L-1209.66 635.701C-1152.33 617.962 -1090.96 618.072 -1033.68 636.015L-909.593 674.893C-852.657 692.731 -791.659 692.946 -734.599 675.51L-602.216 635.059C-545.5 617.729 -484.886 617.834 -428.231 635.362L-299.992 675.037C-242.656 692.776 -181.283 692.667 -124.011 674.723L2.77687 635.001C60.3928 616.95 122.151 616.95 179.767 635.001L306.001 674.55C363.617 692.601 425.375 692.601 482.991 674.55L609.226 635.001C666.842 616.95 728.6 616.95 786.216 635.001L1000.95 702.275" stroke="#00D5F5" stroke-width="4"/>
<path d="M-1380.9 436L-1177.66 371.112C-1118.75 352.302 -1055.42 352.418 -996.574 371.444L-886.833 406.924C-828.333 425.837 -765.395 426.065 -706.759 407.576L-588.963 370.432C-530.68 352.054 -468.138 352.166 -409.921 370.753L-296.151 407.076C-237.237 425.885 -173.911 425.769 -115.066 406.744L-2.77769 370.44C56.4196 351.301 120.142 351.301 179.34 370.44L291.058 406.56C350.256 425.699 413.979 425.699 473.176 406.56L584.895 370.44C644.092 351.301 707.815 351.301 767.012 370.44L969.789 436" stroke="#00D5F5" stroke-width="8"/>
<path d="M-1407.16 423.314L-1203.92 358.426C-1145.01 339.617 -1081.68 339.733 -1022.84 358.758L-913.096 394.238C-854.596 413.152 -791.658 413.38 -733.022 394.89L-615.226 357.746C-556.943 339.368 -494.4 339.48 -436.184 358.067L-322.414 394.39C-263.5 413.199 -200.174 413.084 -141.329 394.058L-29.0406 357.755C30.1567 338.616 93.8796 338.616 153.077 357.755L264.795 393.874C323.993 413.013 387.716 413.013 446.913 393.874L558.632 357.755C617.829 338.616 681.552 338.616 740.749 357.755L943.526 423.314" stroke="#00D5F5" stroke-width="4"/>
<path opacity="0.5" d="M-1530.95 220L-1315.76 153.425C-1258.43 135.687 -1197.05 135.796 -1139.78 153.74L-1015.69 192.617C-958.754 210.455 -897.756 210.671 -840.696 193.235L-708.313 152.783C-651.597 135.453 -590.983 135.559 -534.328 153.087L-406.088 192.762C-348.753 210.501 -287.379 210.391 -230.107 192.448L-103.32 152.725C-45.7038 134.674 16.0545 134.674 73.6704 152.725L199.905 192.275C257.521 210.326 319.279 210.326 376.895 192.275L503.129 152.725C560.745 134.674 622.503 134.674 680.119 152.725L894.848 220" stroke="#00D5F5" stroke-width="8"/>
<path d="M-1490.05 203.953L-1274.86 137.378C-1217.53 119.639 -1156.16 119.749 -1098.88 137.692L-974.792 176.57C-917.856 194.408 -856.859 194.623 -799.798 177.188L-667.415 136.736C-610.699 119.406 -550.085 119.512 -493.43 137.04L-365.191 176.715C-307.855 194.453 -246.482 194.344 -189.21 176.401L-62.4223 136.678C-4.80632 118.627 56.9519 118.627 114.568 136.678L240.802 176.227C298.418 194.278 360.176 194.278 417.792 176.227L544.026 136.678C601.642 118.627 663.401 118.627 721.017 136.678L935.746 203.953" stroke="#00D5F5" stroke-width="4"/>
<path opacity="0.7" d="M-1477.21 134.634L-1262.03 68.0592C-1204.69 50.3205 -1143.32 50.4301 -1086.05 68.3734L-961.956 107.251C-905.02 125.089 -844.023 125.304 -786.962 107.869L-654.579 67.4173C-597.863 50.087 -537.249 50.1927 -480.594 67.7208L-352.355 107.396C-295.019 125.135 -233.646 125.025 -176.374 107.082L-49.5863 67.3592C8.02962 49.3082 69.7879 49.3082 127.404 67.3592L253.638 106.908C311.254 124.959 373.012 124.959 430.628 106.908L556.862 67.3592C614.478 49.3082 676.237 49.3082 733.853 67.3592L948.582 134.634" stroke="#00D5F5" stroke-width="4"/>
<path opacity="0.8" d="M-1534.45 249.708L-1319.26 183.133C-1261.93 165.395 -1200.55 165.504 -1143.28 183.448L-1019.19 222.325C-962.255 240.163 -901.258 240.379 -844.198 222.943L-711.815 182.491C-655.099 165.161 -594.485 165.267 -537.83 182.795L-409.59 222.47C-352.255 240.209 -290.881 240.099 -233.609 222.156L-106.822 182.433C-49.2057 164.382 12.5525 164.382 70.1685 182.433L196.403 221.983C254.019 240.034 315.777 240.034 373.393 221.983L499.627 182.433C557.243 164.382 619.001 164.382 676.617 182.433L891.346 249.708" stroke="#00D5F5" stroke-width="16"/>
<path opacity="0.7" d="M-1530.39 299.623L-1315.2 233.048C-1257.87 215.31 -1196.49 215.419 -1139.22 233.363L-1015.13 272.24C-958.193 290.078 -897.195 290.294 -840.135 272.858L-707.752 232.407C-651.036 215.076 -590.422 215.182 -533.767 232.71L-405.528 272.385C-348.192 290.124 -286.819 290.014 -229.547 272.071L-102.759 232.348C-45.1432 214.297 16.615 214.297 74.231 232.348L200.465 271.898C258.081 289.949 319.839 289.949 377.455 271.898L503.69 232.348C561.306 214.297 623.064 214.297 680.68 232.348L895.409 299.623" stroke="#00D5F5" stroke-width="8"/>
<path opacity="0.7" d="M-1581.09 279.623L-1365.91 213.048C-1308.57 195.31 -1247.2 195.419 -1189.93 213.363L-1065.83 252.24C-1008.9 270.078 -947.902 270.294 -890.841 252.858L-758.458 212.407C-701.742 195.076 -641.128 195.182 -584.473 212.71L-456.234 252.385C-398.898 270.124 -337.525 270.014 -280.253 252.071L-153.465 212.348C-95.8493 194.297 -34.0911 194.297 23.5249 212.348L149.759 251.898C207.375 269.949 269.133 269.949 326.749 251.898L452.984 212.348C510.599 194.297 572.358 194.297 629.974 212.348L844.703 279.623" stroke="#00D5F5" stroke-width="8"/>
<path d="M-1568.28 235.459L-1353.09 168.884C-1295.76 151.146 -1234.38 151.255 -1177.11 169.199L-1053.02 208.076C-996.086 225.914 -935.088 226.129 -878.028 208.694L-745.645 168.242C-688.929 150.912 -628.315 151.018 -571.66 168.546L-443.42 208.221C-386.085 225.96 -324.711 225.85 -267.439 207.907L-140.652 168.184C-83.0358 150.133 -21.2776 150.133 36.3384 168.184L162.573 207.734C220.189 225.785 281.947 225.785 339.563 207.734L465.797 168.184C523.413 150.133 585.171 150.133 642.787 168.184L857.516 235.459" stroke="#00D5F5" stroke-width="4"/>
<path opacity="0.7" d="M423.015 374.204C421.899 386.696 378.048 397.519 336.058 394.994C294.068 392.468 257.348 386.338 258.465 373.846C259.581 361.354 298.111 347.23 340.101 349.755C382.091 352.281 424.132 361.711 423.015 374.204Z" fill="#B3F0FA"/>
<path opacity="0.6" d="M404.985 372.476C404.89 373.534 404.317 374.642 403.246 375.779C402.176 376.915 400.637 378.05 398.682 379.154C394.773 381.362 389.278 383.405 382.769 385.092C369.754 388.464 352.781 390.389 336.558 389.413C320.286 388.434 304.29 386.864 292.479 384.335C286.568 383.069 281.742 381.57 278.458 379.804C275.141 378.021 273.583 376.073 273.771 373.969C273.867 372.896 274.412 371.756 275.416 370.573C276.42 369.39 277.861 368.191 279.694 367.01C283.36 364.647 288.53 362.395 294.711 360.498C307.071 356.707 323.388 354.36 339.603 355.336C355.866 356.314 372.51 358.307 384.969 361.26C391.203 362.737 396.358 364.447 399.89 366.374C401.656 367.337 402.988 368.34 403.85 369.371C404.705 370.397 405.078 371.427 404.985 372.476Z" fill="#00D5F5" stroke="#0B6573"/>
<path opacity="0.5" d="M370.262 373.629C369.969 374.915 368.693 376.318 366.541 377.668C364.416 379.001 361.539 380.216 358.241 381.165C351.644 383.063 343.459 383.868 336.426 382.479C336.022 382.4 335.617 382.32 335.211 382.24C328.445 380.907 321.507 379.54 316.306 377.826C313.546 376.917 311.323 375.924 309.882 374.818C308.445 373.715 307.882 372.583 308.161 371.357C308.457 370.058 309.695 368.611 311.763 367.201C313.809 365.806 316.578 364.507 319.765 363.475C326.143 361.409 334.106 360.437 341.131 361.824C348.266 363.232 355.949 364.83 361.677 366.816C364.545 367.81 366.879 368.888 368.405 370.061C369.936 371.238 370.539 372.413 370.262 373.629Z" fill="#0B6573" stroke="#0B6573"/>
<path d="M307.513 553.736C307.556 558.08 294.809 564.228 283.92 564.652C273.031 565.076 263.148 564.776 263.105 560.432C263.062 556.089 272.876 549.346 283.765 548.922C294.654 548.498 307.47 549.392 307.513 553.736Z" fill="#5068E7"/>
<path opacity="0.5" d="M378.643 180.796C378.618 180.361 378.18 179.556 376.545 178.57C374.997 177.636 372.702 176.746 369.784 176.008C363.964 174.536 355.926 173.733 347.088 174.239C338.257 174.744 329.338 176.603 322.688 178.889C319.355 180.035 316.653 181.267 314.827 182.453C313.912 183.048 313.274 183.595 312.884 184.068C312.489 184.549 312.449 184.827 312.455 184.932C312.46 185.017 312.51 185.245 312.925 185.606C313.342 185.969 314.015 186.364 314.984 186.758C316.913 187.543 319.72 188.209 323.157 188.713C330.01 189.718 339.082 190.038 347.964 189.53C356.837 189.022 364.772 187.643 370.417 185.849C373.25 184.949 375.432 183.967 376.861 182.987C378.368 181.954 378.666 181.191 378.643 180.796Z" fill="#0B6573" stroke="#0B6573" stroke-width="2.68397"/>
<path opacity="0.4" d="M452.411 159.611C451.848 157.949 450.126 156.342 447.59 155.413C445.091 154.498 441.988 154.322 438.97 155.344C435.954 156.364 433.223 158.605 431.425 161.114C429.578 163.692 428.963 166.181 429.489 167.734C429.979 169.182 431.682 170.338 434.533 170.791C437.303 171.231 440.738 170.915 443.879 169.852C446.992 168.798 449.471 167.037 450.984 165.109C452.506 163.17 452.953 161.215 452.411 159.611Z" fill="#0B6573" stroke="#0B6573" stroke-width="2.68397"/>
<path opacity="0.3" d="M276.658 202.692C276.658 200.681 275.957 198.522 274.828 196.888C273.683 195.231 272.276 194.342 270.941 194.342C269.593 194.342 267.955 195.33 266.57 197.12C265.212 198.875 264.342 201.103 264.342 203.038C264.342 206.816 267.712 209.658 270.941 209.658C273.902 209.658 276.658 206.753 276.658 202.692Z" fill="#0B6573" stroke="#0B6573" stroke-width="2.68397"/>
<path opacity="0.3" d="M205.658 190.923C205.658 189.798 205.269 188.578 204.649 187.663C204.01 186.721 203.309 186.342 202.764 186.342C202.207 186.342 201.364 186.787 200.574 187.828C199.813 188.829 199.342 190.085 199.342 191.135C199.342 193.151 201.119 194.658 202.764 194.658C204.145 194.658 205.658 193.224 205.658 190.923Z" fill="#0B6573" stroke="#0B6573" stroke-width="2.68397"/>
</g>
<g filter="url(#filter2_f_3_792)">
<path d="M344.187 -30.6569C96.0006 235.005 248.623 670.081 608.384 722.478L723.731 739.277L-298.386 627.447L344.187 -30.6569Z" fill="url(#paint1_linear_3_792)" fill-opacity="0.4"/>
</g>
<g opacity="0.2" filter="url(#filter3_f_3_792)">
<path d="M427.692 788.613C691.822 538.796 566.378 95.1202 210.543 20.5905L96.4545 -3.30544L1109.71 171.477L427.692 788.613Z" fill="#DBF2FF"/>
</g>
</g>
</g>
<defs>
<filter id="filter0_d_3_792" x="-0.000244141" y="0.000488281" width="760" height="760" filterUnits="userSpaceOnUse" color-interpolation-filters="sRGB">
<feFlood flood-opacity="0" result="BackgroundImageFix"/>
<feColorMatrix in="SourceAlpha" type="matrix" values="0 0 0 0 0 0 0 0 0 0 0 0 0 0 0 0 0 0 127 0" result="hardAlpha"/>
<feOffset/>
<feGaussianBlur stdDeviation="40"/>
<feComposite in2="hardAlpha" operator="out"/>
<feColorMatrix type="matrix" values="0 0 0 0 0.049375 0 0 0 0 0.292622 0 0 0 0 0.329167 0 0 0 0.5 0"/>
<feBlend mode="normal" in2="BackgroundImageFix" result="effect1_dropShadow_3_792"/>
<feBlend mode="normal" in="SourceGraphic" in2="effect1_dropShadow_3_792" result="shape"/>
</filter>
<filter id="filter1_f_3_792" x="-1598.27" y="35.8208" width="2729.79" height="684.365" filterUnits="userSpaceOnUse" color-interpolation-filters="sRGB">
<feFlood flood-opacity="0" result="BackgroundImageFix"/>
<feBlend mode="normal" in="SourceGraphic" in2="BackgroundImageFix" result="shape"/>
<feGaussianBlur stdDeviation="8" result="effect1_foregroundBlur_3_792"/>
</filter>
<filter id="filter2_f_3_792" x="-338.386" y="-70.6567" width="1102.12" height="849.934" filterUnits="userSpaceOnUse" color-interpolation-filters="sRGB">
<feFlood flood-opacity="0" result="BackgroundImageFix"/>
<feBlend mode="normal" in="SourceGraphic" in2="BackgroundImageFix" result="shape"/>
<feGaussianBlur stdDeviation="20" result="effect1_foregroundBlur_3_792"/>
</filter>
<filter id="filter3_f_3_792" x="46.4546" y="-53.3057" width="1113.25" height="891.918" filterUnits="userSpaceOnUse" color-interpolation-filters="sRGB">
<feFlood flood-opacity="0" result="BackgroundImageFix"/>
<feBlend mode="normal" in="SourceGraphic" in2="BackgroundImageFix" result="shape"/>
<feGaussianBlur stdDeviation="25" result="effect1_foregroundBlur_3_792"/>
</filter>
<linearGradient id="paint0_linear_3_792" x1="667.5" y1="294" x2="79.9998" y2="390.501" gradientUnits="userSpaceOnUse">
<stop stop-color="#00DDFE"/>
<stop offset="1" stop-color="#5F36D7"/>
</linearGradient>
<linearGradient id="paint1_linear_3_792" x1="18.4998" y1="506" x2="310.277" y2="441.394" gradientUnits="userSpaceOnUse">
<stop stop-color="#0D0525"/>
<stop offset="1" stop-color="#2384CC"/>
</linearGradient>
<clipPath id="clip0_3_792">
<rect x="79.9998" y="80.0005" width="600" height="600" rx="300" fill="white"/>
</clipPath>
</defs>
</svg>
